<svg xmlns="http://www.w3.org/2000/svg" data-bbox="1 1 1024 1024" viewBox="0 0 1024 1024" data-type="ugc">
    <g>
        <path d="M572 1025H1V1h1024v1024H572M49.054 586.447c.066.181.131.362.114 1.355 4.146 20.055 6.886 40.526 12.685 60.092 23.4 78.947 65.21 146.673 125.868 202.696 37.618 34.745 79.568 62.642 126.243 83.746 54.091 24.457 110.879 37.17 169.944 39.563 19.384.786 38.909-.75 58.32-2.004 27.32-1.765 54.068-7.224 80.413-14.54 92.76-25.758 169.675-76.298 231.21-149.94 42.88-51.32 73.067-109.556 89.373-174.616 3.362-13.413 5.248-27.195 8.138-41.249-.032-.18-.064-.359.042-.714 0 0-.077-.21.395-.888.032-1.636.065-3.272.84-5.229l8.41-1.583c-1.855-1.52-2.727-2.809-3.804-3.011-3.635-.683-4.569-3.035-4.208-6.171.393-3.422.978-6.83 1.648-10.21.662-3.345 1.465-6.668 2.34-9.965.593-2.24 1.615-4.383 2.043-6.645.179-.946-.684-2.088-1.295-3.572-.2-.268-.459-.455-1.249-.847-.2-.304-.4-.609-.542-1.625.085-.707.17-1.413.512-2.303.177-.316.096-.567-.383-1.632.056-2.067.112-4.134.513-6.514-.116-.532-.233-1.063-.516-2.48.05-2.4.1-4.798.612-7.871-.176-7.756-.351-15.512-.682-24.179-2.061-18.23-3.077-36.653-6.393-54.651-8.03-43.583-22.443-85.113-43.036-124.441-35.349-67.51-85.339-122.044-147.478-165.607-48.795-34.208-102.44-57.827-160.497-71.324-26.671-6.2-53.698-10.636-81.065-10.88-22.295-.2-44.679.93-66.899 2.883-33.717 2.964-66.474 11.136-98.314 22.424-65.391 23.182-122.92 59.092-172.429 107.85-29.816 29.363-55.377 61.939-76.38 98.123-21.66 37.32-37.855 76.815-47.507 118.922-6.272 27.36-10.734 54.963-11.029 83.12-.054 5.16-.27 10.316-.907 15.594.167.624.333 1.248.716 2.787.028 6.834.057 13.668.3 21.041 3.844.652 5.192 3.19 4.851 6.756-.344 3.601 1.308 5.882 4.453 8.333.112 4.844.224 9.688-.45 14.896-1.307 1.065-3.445 1.929-3.76 3.233-.835 3.467-.884 7.125-1.16 11.277z" fill="#ECF9FB"/>
        <path d="M956.28 530.953a3224.68 3224.68 0 0 0-.183 6.874c-.015.672.14 1.143.14 1.143-.085.707-.17 1.413-.748 2.47-38.58.233-76.667.077-114.754.017-15.294-.024-30.588.161-46.023.1-.141-.153-.516.024-.516.024s-.027.415-.255.782c-.4 4.552-.572 8.735-.673 13.298 3.002.702 5.932 1.303 8.864 1.306 45.892.059 91.784.029 137.676.08 1.734.001 3.467.605 5.232 1.232.599.781 1.166 1.26 1.806 2.185.035 3.473-.002 6.498-.495 9.529-50.064-.116-99.67-.254-149.278-.28-1.432 0-3.299.814-4.217 1.886-2.776 3.243-1.458 13.409 1.921 15.986.377.287 1.446-.334 2.666-.55 47.531-.025 94.59-.022 141.65-.077 1.902-.002 3.803-.553 6.041-.74 2.29 1.54 4.241 2.975 6.193 4.408 0 0 .077.21-.187.347-.357.231-.544.377-.526.412.116.216.278.407.424.607-2.566 13.612-4.452 27.394-7.814 40.807-16.306 65.06-46.492 123.297-89.373 174.615-61.535 73.643-138.45 124.183-231.21 149.942-26.345 7.315-53.093 12.774-80.414 14.539-19.41 1.254-38.935 2.79-58.32 2.004-59.064-2.394-115.852-15.106-169.943-39.563-46.675-21.104-88.625-49.001-126.243-83.746-60.658-56.023-102.468-123.749-125.868-202.696-5.799-19.566-8.539-40.037-12.191-60.502 51.776-.409 103.06-.408 154.5-.489.223-.181.364-.332.337-.371-.123-.186-.292-.34-.496-.622-.05-.116-.024-.367.362-.504 1.2-.208 2.015-.28 3.2-.48.542-4.39.791-8.653.691-12.909-.006-.261-2.772-.457-4.583-.564-.775.013-1.22-.095-1.86-.516-1.971-.52-3.748-.908-5.526-.91-42.963-.033-85.927-.025-128.89-.027-12.468-.001-12.468-.005-10.552-13.153 4.372.381 8.784 1.126 13.187 1.08 11.452-.122 22.902-.907 34.35-.854 23.44.108 46.88.634 70.32.9 9.518.107 19.04.053 28.556-.125 1.203-.023 2.384-1.249 3.644-2.161.046-.412.025-.58.105-.979.16-.39.22-.548.591-.789.11-1.365-.094-2.648-.384-4.341-.02-1.798.044-3.187.44-4.678.54-1.062.75-2.02.959-2.979-.69-.063-1.38-.127-2.346-.13-.437-.039-.597-.138-.481-.326.344-.211.412-.334.48-.458-.289.177-.578.353-.919.595-.052.066-.22.085-.23-.314 1.171-3.477 2.352-6.554 3.673-9.448.14.182-.15-.178.228-.11 3.453-1.376 7.415-2.218 5.348-7.243.053-.06.163-.174.5-.025 5.2-2.831 11.224-4.916 10.12-12.486.014.024-.035-.002.334-.002 1.81-.996 3.491-1.77 4.65-3.026 6.233-6.752 12.668-13.361 18.36-20.553 3.48-4.396 5.749-9.751 8.664-14.987 5.127-6.422 10.152-12.531 15.312-18.806l-10.338-8.432c-3.026 3.75-5.696 7.136-8.465 10.438-.699.833-1.639 1.859-2.597 2.019-12.855 2.15-25.722 4.236-38.614 6.153-2.785.414-5.858.724-8.48-.028-3.761-1.08-7.23-3.178-10.908-4.992-.355-.074-.627.002-1.245.114-1.454-.29-2.563-.616-3.905-1.21-3.563-1.49-6.846-2.885-10.254-3.83-.978-.272-2.317.756-3.762 1.221-.442-.034-.611-.1-.963-.392a290.646 290.646 0 0 1-4.799-6.983c-.76-1.685-1.296-3.082-1.99-4.396-6.226-11.79-19.59-17.814-32.264-14.571-12.84 3.284-22.112 14.691-21.358 27.475.699 11.853 7.434 20.099 17.803 25.94 3.694 3.159 7.592 3.79 12.153 1.833.759-.087 1.198-.082 1.87.205 3.157 1.959 5.739 1.99 8.826-.004 3.054-1.973 6.767-2.926 10.123-4.277-.068.05.026-.09.048.275.765.602 1.508.84 2.355 1.128.104.05.246.232.068.596-.04 4.022 2.586 2.897 4.528 2.98-.111.106.092-.127.063.242 1.872 4.882 5.046 7.64 10.407 7.778.656.355 1.049.675 1.503 1.37 1.41.801 2.757 1.227 4.482 1.672 3.37.413 5.292 1.445 5.92 5.017 1.048 5.976 3.18 11.76 4.268 17.731.372 2.043-.622 4.634-1.709 6.571-1.668 2.973-3.956 5.597-5.962 8.341l7.58 6.852h-17.115l-134.67-.026c-.028-6.833-.057-13.667-.103-21.286-.08-1.231-.14-1.676-.2-2.122.14-5.158.355-10.315.41-15.474.294-28.157 4.756-55.76 11.028-83.12 9.652-42.107 25.846-81.603 47.507-118.922 21.003-36.184 46.564-68.76 76.38-98.123 49.51-48.758 107.038-84.668 172.43-107.85 31.84-11.288 64.596-19.46 98.313-22.424 22.22-1.952 44.604-3.083 66.899-2.884 27.367.245 54.394 4.68 81.065 10.881 58.058 13.497 111.702 37.116 160.497 71.324 62.14 43.563 112.13 98.096 147.478 165.607 20.593 39.328 35.006 80.858 43.036 124.44 3.316 18 4.332 36.422 6.4 55.57l.212 23.936c-.05 2.398-.1 4.797-.148 7.952.057 1.184.114 1.61.17 2.036M721.66 772.895l1.435-2.582-.7-.314c-.471.994-.942 1.988-2.203 3.043-.517.105-1.034.21-1.224-.047 0 0-.315.37-.175-.36-1.211-.896-2.423-1.791-4.208-2.908-.519-.607-1.037-1.214-1.575-2.543-2.317-2.068-4.634-4.136-7.535-6.332-.494-.608-.987-1.216-1.497-2.592a6049.37 6049.37 0 0 0-2.614-1.63s-.118-.195.227-.896c-1.236-.895-2.472-1.79-4.173-2.777-.33-.14-.5-.388-.467-1.49l-2.476-4.397c-.535.444-1.07.888-2.231 1.052-1.287.241-2.573.483-4.18.07l-5.67-.608-.52 10.951 4.708 2.175c-2.889.81-5.235 1.468-8.465 2.2-3.37.367-6.741.734-10.502.574-4.377-3.046-5.89 2.626-9.244 3.212-1.83.32-4.083 3.056-4.617 5.101-2.096 8.04-2.364 16.128-.054 24.367 1.084 3.862 2.614 5.406 6.886 4.935.29.204.436.482.412 1.514-.065 1.362-.45 3.814-.141 3.905 1.769.52 3.702.48 5.888.764 0 0 .14.306-.264.963v7.153c2.308.126 5.497.301 8.555.54 0 0 .098-.107.03.667.193 3.256 1.982 4.574 4.99 4.33 0 0 .113-.14.032.602l2.386 9.866c2.476-.553 4.659-1.041 7.259-1.44.27.162.403.4.388 1.475l1.661 8.07c3.41-1.675 5.19.06 7.18 3.518 1.825 3.175 4.034 7.77 9.626 5.415 0 0 .11.109-.257.709l-2.517 7.79c2.715-1.486 4.966-2.718 7.695-3.79.164.283.328.566.51 1.615.815.512 1.63 1.025 2.582 1.647 0 0 .115.131-.243.815l-2.157 7.378c2.4-1.147 4.789-2.288 7.434-3.302 0 0 .122.26-.218.895.887.534 1.773 1.067 3.243 1.73.453.34.906.681 1.359 1.762.836 3.538 1.654 4.918 6.634 5.182 7.16.379 12.35-1.6 17.73-5.35 1.35-.94 3.706-1.565 5.136-1.05 4.408 1.59 4.464-1.495 5.483-4.141 1.294-3.357 3.006-6.552 4.52-9.78l-1.331-11.154 7.288-.582s.431-.058.732.59c1.379-.014 3.319.542 4.028-.154 1.93-1.895 4.695-4.026 1.464-7.452 0 0 .122-.296.242-1 .133-.8.659-2.048.338-2.33-4.618-4.04-7.867-9.919-14.306-11.451 0 0-.306.33-.179-.418-3.378-4.858-5.372-11.253-12.8-11.602 0 0-.025.045-.099-.608-.653-.45-1.306-.901-1.9-1.388 0 0-.036.059-.023-.696-.828-4.053-2.413-7.25-7.613-6.681 0 0-.113-.191.28-.81.749-3.932-1.316-5.651-6.272-4.975-.471-.578-.943-1.156-1.406-2.497-1.017-.762-2.035-1.523-2.98-2.337 0 0-.038.08-.109-.6-.699-.407-1.398-.813-1.948-1.359 0 0-.111.172-.015-.617l-3.76-8.028c-1.763.4-3.158.718-4.368.797 0 0-.226.197.026-.574.07-.535.14-1.07.85-1.73m35.467-477.005s-.184-.365.322-1.035c.243-4.33-3.436-3.741-6.46-4.983-15.383-15.485-30.765-30.97-46.062-47.356.024-1.505.047-3.01.073-4.516 0 0 .002-.002.637.323 4.221 2.486 10.57 2.416 12.877.187 2.477-2.396 5.045-4.824 7.961-6.6 2.47-1.505 2.822-2.894 1.588-5.578.215-.27.494-.394 1.658-.342 1.28-.204 3.161.057 3.74-.69 3.134-4.045 9.465-3.477 11.88-8.442.254-.523 1.083-1.171 1.568-1.113 3.813.453 5.086-2.763 7.264-4.745 2.864-2.606 5.778-2.962 8.605.27 1.745 1.995 3.678 3.824 5.539 5.716 6.569 6.677 13.143 13.35 19.697 20.745l-30.371 46.139 8.25 9.48c11.515-16.702 23.06-32.96 34.042-49.593 4.974-7.534 3.973-13.197-2.38-19.788-8.432-8.748-17.144-17.225-25.692-25.862-6.434-6.502-14.956-7.951-22.495-2.682-15.66 10.947-30.991 22.364-47.205 33.596-3.53 1.107-6.686 4.035-10.86 2.225-.15-.065-.852 1.142-1.553 2.273-.536.185-1.071.37-2.245.277-3.859-1.513-5.647 1.715-5.98 3.969-.447 3.038-1.617 5.222-4.192 7.215-.438.032-.876.064-1.657-.43-.731-.246-1.977-.87-2.115-.682-1.942 2.65-3.734 5.41-6.234 8.15-4.282 1.012-.362 2.645-.313 4.473 0 0 0 .486-.864.502-7.455.047-8.241.692-7.737 6.328 0 0-.04 0-.641.07-.215.32-.43.643-.868 1.457-.578.406-1.157.813-2.594 1.18-5.129-.717-5.749 2.293-5.284 6.691-.16.27-.395.405-1.554.336-5.959-.542-6.09 3.744-6.733 8.278-.27.223-.538.446-1.502.68-4.575 2.238 1.084 4.105-.328 6.33 2.713-.268 4.888-.393 7.027-.737.933-.15 1.794-.752 2.688-1.148.229 1.009.647 2.016.653 3.026.021 3.594-.626 8.168 2.915 9.748 7.905 3.53 10.735 11.75 17.038 16.75 6.68 5.3 12.508 11.698 18.495 17.825 1.512 1.547 2.11 3.955 3.326 5.84.791 1.226 1.8 2.409 2.959 3.28 2.505 1.885 6.439 3.014 7.478 5.441 1.616 3.773 3.538 1.742 5.502 2.355l-1.332 3.792c1.317 1.11 2.322 1.968 3.337 2.813 1.466 1.22 3.04 3.517 4.385 3.39 1.929-.18 5.053-1.912 5.287-3.363.93-5.802 4.125-7.025 7.763-6.016 1.712-2.813 2.6-6.294 4.412-6.872 5.407-1.723 3.52-7.048 5.98-10.04a32.497 32.497 0 0 1-2.011-1.746s.055-.408.116-1.213c-1.121-.724-2.571-2.312-3.311-2.031-4.552 1.73-6.065-.513-6.385-5.048.232-.789.465-1.577 1.225-2.718-.155-1.892-.31-3.783.122-6.259.98-.496 1.96-.991 3.295-1.266 0 0 .114.4-.336.98.49 1.29.979 2.582.935 4.138-.875 3.088 1.714 1.102 3.31 1.728a25.233 25.233 0 0 1 2.814.065c.297.176.453.436.44 1.547 1.804 5.6 6.054 8.212 11.072 6.298 4.839-1.845 2.983-5.557 1.776-9.54a16.706 16.706 0 0 1-.874-3.159c-.338-1.735-.675-3.47-.23-5.19 2.74.086 5.48.173 8.608-.123.167-.07.334-.141.627.478.735.515 1.58 1.573 2.186 1.45 2.36-.48 5.662-9.005 4.157-11.031-.797-1.072-2.543-1.438-3.945-2.243 0 0-.09-.116.228-.864-.363-1.692-.006-4.241-3.514-2.79M263.002 751.002s.061.04-.633.004c-3.277-1.342-3.976-4.728-1.913-7.507 1.182-1.593 1.699-3.679 2.197-6.265-1.633.182-3.28.282-4.896.56-20.239 3.47-29.766-4.868-36.204-16.774-1.96-3.624-3.233-7.65-4.56-11.58-10.406-30.835-31.201-52.443-59.775-66.982-6.847-3.484-14.3-5.333-22.165-4.045-7.192 1.177-11.167 6.42-9.694 13.515.967 4.658 2.097 9.466 4.22 13.67 11.893 23.55 29.142 42.188 52.175 55.273 10.664 6.058 21.794 11.4 31.98 18.167 9.335 6.202 13.955 15.592 11.118 27.09-1.084 4.394-3.815 8.374-5.711 12.58-.749 1.662-2.835 4.271 2.25 3.554 4.66 4.927 2.967-3.932 5.775-2.78.29 2.576.572 5.073.613 8.17-.202.997-.913 2.346-.512 2.927 1.362 1.973 3.117 3.674 4.722 5.478l-1.134-1.489 46.993-44.237-6.429-7.024c-1.974 1.74-3.666 3.229-5.94 4.443l-2.437-1.498c0 2.021 0 3.416-.04 4.75m332.012-486.788-8.574-21.255c-4.457 10.808-8.877 20.41-12.374 30.337-3.201 9.09 1.252 16 11.703 18.683 9.198-.159 14.962-6.357 13.338-14.927-.783-4.134-2.626-8.066-4.093-12.838m142.297 471.56-4.737-4.318c-.542.837-.846 1.434-1.266 1.935-5.983 7.138-5.97 7.117.801 13.714 14.365 13.995 28.71 28.01 43.688 42.628 2.517-3.397 4.847-6.54 7.565-10.237.577-1.384 1.153-2.768 1.833-4.923 1.623-5.876 3.704-11.67 4.775-17.644 2.362-13.182 8.084-24.057 19.543-31.508 3.333-2.167 6.568-4.485 9.87-6.7 18.87-12.656 34.925-28.124 46.881-47.55 5.667-9.206 10.737-18.744 9.458-30.918-1.432-7.137-5.178-10.183-12.7-10.351-8.765-.197-16.11 3.75-22.856 8.582-16.17 11.584-28.88 26.477-39.266 43.319-5.31 8.61-9.976 17.619-14.955 26.435-4.036 7.147-9.854 12.104-17.98 13.856-6.785 1.463-13.648 2.558-20.466 3.872-4.083.788-7.819 2.023-7.865 7.835-.57.748-1.141 1.496-2.323 1.973M459.737 446.366c-.069.548-.137 1.096-.9 1.95-.217 7.824-.457 15.648-.59 23.474-.007.395.896.806 1.59 1.914.166.711.332 1.422.022 2.487.41.558.813 1.6 1.229 1.604 10.294.123 20.594.288 30.88-.01 1.378-.04 3.754-2.437 3.855-3.87.664-9.399.886-18.832 1.061-28.257.017-.874-1.305-1.772-2.47-3.396-11.102-.247-22.203-.515-33.306-.668-.51-.007-1.033 1.029-2.005 1.66.158.256.315.512.65 1.24-.06.158-.119.316-.63.603l-.333.315c.254.141.508.283.947.954m81.904 41.142h-33.615v33.35c11.767 0 23.04 0 35.041-.227.387-1.816 1.03-3.62 1.113-5.45.288-6.258.562-12.53.453-18.79-.043-2.474-1.107-4.93-1.908-7.866-.006-.328-.013-.655.29-1.268l.288-.27c-.267.116-.534.233-1.662.52m-32.09-10.983c9.962.132 19.923.28 29.885.348.532.003 1.069-.668 2.03-1.352.485-.51.97-1.02 2.068-2.097.156-8.765.361-17.53.418-26.295.01-1.375-.653-2.755-1.457-4.787h-34.668c0 10.183-.033 20.326.051 30.468.009 1.03.729 2.055 1.673 3.715m239.455-28.668c.682 2.42 1.364 4.84 2.017 8.076 2.096 9.993 4.229 19.978 6.277 29.98 1.653 8.071 3.013 16.21 4.93 24.215.507 2.115 2.592 3.852 3.952 5.763 1.41-1.183 3.306-2.096 4.135-3.599 2.324-4.215 4.207-8.672 6.234-12.97l11.987 12.806 5.79-17.419 15.778 14.232c2.316-18.067.064-34.73-.83-51.446 7.33 15.343 12.673 31.593 24.485 45.219l7.613-17.943 13.26 11.754 5.024-16.469 16.602 13.182c.562-4.235 1.81-7.16 1.128-9.53-5.437-18.873-11.24-37.642-17.096-56.99-3.374.851-6.789 1.713-10.248 1.904l-.36-1.858-1.004-.776c-.462.867-.768 2.271-1.427 2.463-.79.23-2.359-.32-2.715-.996-.397-.751-.08-2.773.394-2.944 2.695-.973 6.187-2.956 8.193-2.013 6.057 2.848 7.262-2.496 10.21-5.243-1.558.2-3.116.4-4.782-.132l-2.93-11.452-111.148 29.241c1.71 4.584 3.118 8.359 4.53 12.945M572.812 844.924l5.534-.5c-.97-5.672-1.875-10.977-2.805-16.42H422.42c-.814 4.646-1.752 9.013-2.235 13.43-.124 1.14 1.18 2.436 2.455 4.202.814.118 1.629.338 2.443.339 47.546.02 95.093.027 142.639-.014 1.419-.001 2.837-.544 5.09-1.037M425.054 284.676c7.736 2.94 13.934 1.698 19.406-4.302 13.877-15.217 27.641-30.537 41.461-45.806 7.202-7.957 14.425-15.894 21.923-24.154-2.141-1.81-3.878-3.276-5.921-5.326l-21.935-21.317c-5.997 6.533-11.262 12.808-17.087 18.512-16.66 16.315-33.575 32.37-50.33 48.587-6.379 6.173-7.643 13.72-2.637 20.094 3.314 4.218 7.843 7.482 12.06 11.761.553.298 1.106.595 2.17 1.212.198.039.396.078.89.739M316.62 846.732c1.267-1.87 2.533-3.742 4.427-5.76 2.358-2.965 4.717-5.929 7.702-9.143 1.952-2.58 3.903-5.161 6.296-8.173 1.99-2.55 3.979-5.1 6.536-8.015l3.713-5.256c-24.093-14.068-42.345-34.236-59.964-52.033l-45.93 43.526c20.929 21.024 40.87 42.322 64.404 59.966 2.024-2.51 3.68-4.564 5.943-6.925 2.086-2.64 4.172-5.278 6.873-8.187M424 153.824l-7.903 6.786.549.938c5.132-1.84 10.265-3.68 16.199-5.54 7.921-1.556 15.78-3.699 23.777-4.547 16.59-1.76 30.98 2.99 41.417 15.377l-8.666 11.11c7.84 7.352 16.258 15.249 25.023 23.47 3.885-6.061 8.13-10.477 15.621-7.674.408.153 1.025-.287 1.455-.157 2.005.609 4.572.753 5.856 2.098 4.584 4.799 8.729 10.018 13.352 15.444l25.642-27.135c-5.867-6.038-11.226-11.474-16.467-17.021-.927-.981-2.227-2.824-1.876-3.599 2.117-4.672-1.149-7.216-3.679-9.845a393.6 393.6 0 0 0-16.017-15.747c-4.605-4.268-8.94-9.375-14.403-12.058-11.913-5.852-24.917-6.607-37.947-4.264-23.82 4.284-43.154 17.241-61.934 32.364m-1.918 657.783c1.833.457 3.665 1.313 5.499 1.315 48.476.073 96.951.073 145.427-.019 1.348-.002 2.694-1.15 4.396-2.228.53-.56 1.06-1.119 2.33-1.813 3.435-4.275 3.249-8.56-.918-12.434-4.12-6.714-10.346-9.464-17.979-9.47-13.619-.01-27.239.095-40.857.013-5.934-.036-7.604-1.654-7.59-7.657.362-2.615.689-5.236 1.092-7.845 2.68-17.305 6.267-34.567 4.56-52.206-.664-6.869-.79-14.263-7.64-19.583-2.373-1.625-4.539-4.03-7.16-4.73-8.335-2.23-16.468 3.2-19.02 13.223-1.613 6.338-2.802 13.158-2.255 19.598 1.356 15.94 3.617 31.815 5.918 47.657 1.287 8.858-.636 11.564-9.714 11.576-13.305.017-26.61-.012-39.915.024-13.11.035-24.736 10.735-18.268 22.937l-.903.165c.092.165.252.48.268.473.415-.186.816-.405 1.701-.743.316.38.632.759 1.028 1.747m53.626 100.657c.488-.435.976-.87 1.956-1.763l2.805-4.05c3.42 6.905 7.963 8.853 13.981 6.403 1.017-.414 2.365-1.735 2.365-2.637-.004-4.729-.393-9.457-.784-15.077.216-2.375.431-4.75 1.355-7.066.545.87 1.457 1.693 1.576 2.62.945 7.29 1.737 14.6 2.65 22.541 3.262-.326 6.31-.63 10.08-1.098.73-.091 1.46-.183 2.448.15l1.054.034c-.443-.142-.885-.285-1.297-1.35-.048-15.896-.017-31.787 2.673-47.58.76.891 1.126 1.805 1.2 2.742.795 10.069 1.463 20.149 2.338 30.21.463 5.334 1.263 10.637 2.301 16.349.85-.09 1.702-.179 3.36-.415 1.089.06 2.178.12 3.466.411l.433.022s.313-.314.957-.524c.432-.128.865-.256 1.589.047 3.016-1.642 3.016-1.642-.305-4.97.053-.754.106-1.51.683-2.818l2.117-13.146c1.21 1.82 2.168 3.261 3.272 5.44.019.753.037 1.505-.527 2.823.17 3.41.017 6.883.672 10.196.252 1.278 2.217 2.85 3.622 3.114 1.974.372 4.153-.35 6.892-.756.432-.097.863-.194 1.587.189.297.06.593.142.892.158.063.003.167-.236.204-.376.46-1.742.91-3.487 1.467-5.635 2.383 2.65 3.768 4.191 5.963 5.881 1.092.038 2.185.076 3.476.352l.437.029s.32-.314.987-.481c.454.05.908.099 1.567.4l.454.024s.325-.338.969-.514c.435-.085.871-.17 1.85-.015.03-3.723.18-7.452.023-11.168-.057-1.343-.854-2.654-1.47-4.711.034-.746.068-1.492.817-2.25 1.645.674 3.29 1.348 5.115 2.717.128 1.185.256 2.37.258 4.177.184.368.367.736.739 1.933l1.455 9.204 11.964.634-7.78-58.46H418.07l-7.637 58.068c3.286 0 6.004.376 8.538-.144 1.458-.3 3.52-1.881 3.764-3.176 1.373-7.326 2.218-14.75 3.36-22.123 1.222-7.887 2.576-15.755 3.871-23.631l1.4.16c-.519 14.555-1.037 29.111-1.967 44.052.102.848.204 1.697.382 3.348.427.56.855 1.122 1.612 1.965a51.468 51.468 0 0 0 2.356-.498c1.1.052 2.2.104 3.892.53 4.644 1.257 2.725-3.848 4.808-5.132.06-.037-.884-1.707-1.446-3.415.223-2.078.446-4.156 1.38-6.26 1.816.35 3.633.701 5.595 1.93-.054 2.373-.107 4.746-.61 7.16l-.69.465c.377.169.755.338 1.248 1.164-.053.438-.106.877-.843 1.507.215.917.394 2.622.65 2.634 3.802.171 7.675.525 11.405-.024 2.533-.372 2.285-1.94-.288-3.572.094-1.069.188-2.138 1.019-3.416.046-2.93.093-5.86.034-9.462.085-.442.17-.885.93-1.188 4.129 3.416 4.374 7.999 4.074 12.866-.124 2.005-1.499 5.395 3.723 4.285.45.084.9.169 1.598.85 1.599-.237 3.197-.474 5.48-.883M278.95 344.227l-7.608-16.783 6.913-2.138-3.373-14.668 10.359-2.42-5.029-18.312c2.525-.34 4.622-.69 6.734-.887 2.77-.258 4.554-1.525 3.857-4.453-1.538-6.456-.226-12.5 1.835-18.592.366-1.081-.46-3.331-1.44-3.983-9.246-6.15-18.645-12.071-28.183-18.176-28.86 24.471-56.92 49.51-81.116 78.457-8.81 10.54-17.01 21.768-24.108 33.517-7.61 12.598-4.328 24.917 7.589 33.526a1767.633 1767.633 0 0 0 42.448 29.712c3.305 2.243 7.419 3.294 11.686 5.053.168-.073.336-.145 1.149-.14.428-.05.857-.098 2.1.148 5.738.1 10.873-1.733 14.898-5.718 13.361-13.227 26.12-27.028 36.022-43.112 5.697-9.254 8.32-19.337 5.267-31.03m21.568 155.227c1.997.873 4.471 1.268 5.907 2.703 5.722 5.72 11.122 11.766 16.75 17.808l177.78-168.745 175.907 167.994c6.993-6.4 13.473-12.33 20.422-18.435.322-.134.56-.358 1.45-.886.76.064 1.518.13 2.902.739 4.098.123 8.2.42 12.292.326 5.023-.114 10.038-.556 15.717-1.028l4.168-.322c-1.99-1.448-3.01-2.036-3.845-2.82-29.61-27.838-59.181-55.72-88.84-83.508-2.85-2.672-4.28-5.407-4.254-9.47.17-25.83.085-51.663.083-77.496v-5.28h-51.136v42.576l-85.588-81.241-232.13 217.22c1.945.253 2.93.382 4.537 1.057 8.09.117 16.181.277 24.272.297 1.015.003 2.032-.73 3.606-1.49m224.137 196.189c1.313.123 2.627.353 3.94.354 74.867.016 149.734.018 224.6-.026 1.58-.001 3.16-.559 5.421-1.15.455-1.614.91-3.227 1.958-5.423.142-1.141.406-2.282.407-3.423.018-45.234.02-90.467-.028-135.701-.001-1.413-.555-2.826-1.315-4.991-2.485-.106-4.97-.303-7.454-.303-168.493-.037-336.986-.058-505.479-.08h-4.765c-.195.808-.341 1.131-.341 1.455-.005 48.162-.012 96.325.065 144.487.002 1.44.895 2.877 1.465 4.888 3.68.095 7.358.274 11.037.274 71.529.01 143.058.006 214.587-.05 2.068-.001 4.136-.595 6.886-1.169 1.352-.808 2.761-1.536 4.045-2.44 2.43-1.714 4.596-3.909 7.21-5.235 11.025-5.591 24.821-5.634 37.76 8.533m-186.936-399.89c2.17 2.827 4.342 5.653 6.513 8.479l1.585-.174c.387-1.586 1.551-3.499 1.043-4.708-7.383-17.552-2.405-35.737-3.733-52.82 2.884-1.26 5.723-1.573 6.633-3.063 3.434-5.626 6.242-11.634 9.404-17.731-20.465-12.14-40.714-23.6-60.362-36.009-12.258-7.74-24.1-6.853-36.391-1.386-7.736 3.44-8.545 6.58-2.494 12.454 5.32 5.164 11.313 9.743 17.47 13.897 3.688 2.487 4.38 4.624 2.216 8.3-2.597 4.41-4.935 8.971-7.699 14.044l27.797 18.51 10.304-15.622c4.546 2.783 8.434 5.314 12.472 7.576 2.418 1.355 3.309 2.931 3.42 5.87.563 14.77 3.704 28.922 11.822 42.384m498.537 94.072-97.192 25.69 3.265 10.791c1.882-.294 3.528-.404 5.094-.818 33.642-8.9 67.239-17.972 100.93-26.68 10.087-2.606 17.344-8.09 21.456-17.578 3.186-7.352 3.56-14.954 2.082-22.875-3.007-16.113-20.763-28.078-36.673-24.375-8.717 2.03-15.667 6.503-19.439 14.848-2.41 5.332-6.286 7.896-11.933 9.264-14.433 3.498-28.653 7.875-43.092 11.342-14.343 3.444-26.041 17.518-17.947 35.752l10.995-2.846c0-.884.095-1.544-.014-2.169-1.718-9.817 1.031-14.834 10.521-17.595 14.032-4.082 28.108-8.063 42.307-11.501 9.746-2.36 18.182-5.407 21.587-16.312.866-2.773 4.395-5.53 7.334-6.698 12.182-4.835 26.74 7.46 23.88 20.393-1.524 6.889-4.903 13.368-7.076 19.065-2.699 0-5.466-.256-8.16.076-2.43.299-4.781 1.241-7.925 2.226m-342.01 130.03v-32.412H460.22v33.244c11.446 0 22.545 0 34.025-.833M661.252 187.58l8.425-2.63c-5.566-3.039-13.569-5.284-18.177-10.52-4.676-5.311-6-13.575-7.945-18.434-1.883 4.966-3.006 13.362-7.66 18.654-4.508 5.128-12.646 7.065-18.587 10.097 17.166 3.095 22.573 9.606 26.31 33.712.644-3.38 1.017-5.446 1.432-7.502 1.984-9.824 4.62-19.215 16.202-23.377m-26.258 648.756-2.61-10.246-1.17-.655c-1.236 17.037-9.348 27.762-27.106 30.324 20.283 1.732 25.712 15.434 27.884 32.423 1.761-16.916 7.02-30.398 26.893-32.182-11.12-2.936-20.808-6.744-23.89-19.664M359.614 846c-6.07 3.649-12.14 7.297-18.068 10.862 16.473 1.752 23.079 13.083 24.511 29.261 2.015-15.914 7.847-27.853 24.343-29.205-5.485-3.236-12.835-5.601-17.043-10.607-4.212-5.01-5.285-12.66-7.219-17.786-1.66 4.599-3.876 10.739-6.525 17.475M579.98 195.33l-15.334 13.435 20.538 21.476 20.361-17.878c-7.446-6.746-13.938-12.437-20.186-18.386-2.382-2.268-3.418-.459-5.38 1.353m32.244 549.334-17.73 10.02c17.573 1.273 22.966 13.049 24.436 27.237 2.392-6.158 3.527-13.52 7.626-18.384 4.065-4.823 11.115-7.13 16.784-10.497-16.654-1.586-21.928-13.696-23.278-28.051-2.408 6.258-4.883 12.687-7.838 19.675M356.94 349.434c7.994 5.258 8.22 14.285 11.024 22.599 1.208-15.825 8.609-25.937 24.112-27.393-5.793-3.198-12.856-5.28-17.068-9.939-4.104-4.54-5.293-11.717-7.081-16.076-2.034 4.785-3.318 11.98-7.502 16.482-4.199 4.518-11.288 6.35-16.459 9.021 3.815 1.52 8.076 3.217 12.974 5.306m-.04 414.022c7.43 5.795 8.146 14.368 9.96 23.175 1.874-14.825 6.916-26.915 22.934-27.8-5.244-3.22-12.173-5.607-16.134-10.43-4.016-4.89-5.1-12.189-6.85-16.802-1.825 4.72-2.92 11.862-6.886 16.606-3.973 4.754-10.811 7.113-15.605 10.041 3.472 1.394 7.717 3.098 12.582 5.21m381.65-501.43c6.112 4.74 12.679 5.085 19.54 1.914 7.787-3.6 11.813-13.601 8.9-21.913-2.99-8.53-12.582-13.695-21.066-11.343-14.39 3.99-18.431 19.7-7.373 31.342m-59.683 147.29c2.082-10.602 6.014-19.925 18.45-24.468-12.896-4.403-17.101-14.126-19.6-25.209-1.359 11.29-6.064 19.883-17.647 25.033 12.994 5.39 15.554 16.134 18.329 27.084.146-.544.293-1.088.468-2.44m-286.97-230.928-2.506-9.52c-2.346 11.27-7.104 20.394-19.763 23.413 12.198 3.126 17.229 11.583 19.445 22.7 2.306-11.18 7.333-19.512 19.97-22.414-8.15-2.615-14.218-6.056-17.146-14.179m-83.014 205.2 7.508 13.74c2.743-7.601 5.679-16.087 15.946-18.448-10.653-3.357-13.637-11.686-16.045-20.865-2.399 9.253-5.774 17.612-16.481 20.292 3.398 1.905 5.967 3.344 9.072 5.282m435.557 401.514c1.34 1.24 2.713 2.443 4.01 3.725 2.544 2.516 4.788 1.32 6.982-.51 2.462-2.055.952-3.934-.54-5.446a1896.87 1896.87 0 0 0-21.845-21.753c-1.874-1.839-3.67-1.67-5.461.505-2.39 2.9-2.023 5.392.523 7.84a5896.597 5896.597 0 0 0 16.331 15.64m-204.57-547.69-7.015 19.83c-.442-.37.33.524.53.41 5.864-3.34 9.433-1.405 11.29 4.733.091.305.315.755.547.802 2.444.501 5.729 2.117 7.167 1.113 2.23-1.557 3.808-4.751 4.554-7.547.89-3.332-2.6-2.83-4.51-3.825-2.044-1.068-4.39-2.567-5.352-4.5-2.357-4.747-3.994-9.85-6.106-15.288-.39 1.396-.687 2.452-1.104 4.273m-162.308 6.594 1.547-3.806-12.255-7.428-8.818 15.775 12.5 7.626a4370.28 4370.28 0 0 1 7.026-12.167m329.858 115.475s.1-.056 0 0M428.578 912.516s-.099.056 0 0M264.484 740.58s-.058-.1 0 0z" fill="#022340"/>
        <path d="M187.987 458.932c1.109.326 2.218.652 3.913 1.03.753.017.92-.017 1.088-.052 3.594 1.664 7.063 3.762 10.824 4.842 2.622.752 5.695.442 8.48.028 12.892-1.917 25.759-4.002 38.614-6.153.958-.16 1.898-1.186 2.597-2.02 2.769-3.301 5.439-6.687 8.465-10.437l10.338 8.432a15111.23 15111.23 0 0 1-15.615 18.966 68152.964 68152.964 0 0 0-31.74 38.406s.049.026-.276.132c-3.598 4.14-6.872 8.173-10.146 12.207 0 0-.11.114-.393.387a482.168 482.168 0 0 0-5.497 6.962s.292.36-.133.352c-2.84 2.948-5.256 5.904-8.337 9.673h4.958s.168-.019.256-.084c.09-.065.127-.05.127-.05.16.1.32.2.968.511.606 1.122.725 2.03.844 2.939-.064 1.388-.129 2.777-.195 4.971.052 1.88.106 2.954.16 4.028-.06.158-.12.316-.489.74-.628.287-.844.446-1.415.765-45.526.023-90.594.006-135.663.053-5.133.006-10.267.372-15.4.57-3.04-1.54-4.693-3.82-4.349-7.422.34-3.566-1.007-6.104-4.959-7.026 44.783-.261 89.673-.252 134.563-.244h17.115l-7.58-6.852c2.006-2.744 4.294-5.368 5.962-8.34 1.087-1.938 2.081-4.53 1.71-6.572-1.088-5.971-3.22-11.755-4.27-17.73-.627-3.573-2.55-4.605-6.113-5.3-1.83-.789-3.09-1.277-4.35-1.765-.392-.32-.785-.64-1.615-1.293-3.693-2.838-6.948-5.344-10.204-7.85 0 0-.203.234-.239-.155-1.425-1.28-2.814-2.171-4.203-3.061 0 0-.142-.182-.4-.468-.912-.61-1.567-.933-2.223-1.256 0 0-.094.139-.073-.256 4.738-6.927 9.685-13.35 8.558-22.21-.095-.746.847-1.624 1.307-2.442.17.067.34.133 1.071.414 5.028 1.02 9.493 1.825 13.959 2.63m18.394 31.905c-.96 2.069-2.968 4.303-2.673 6.175.75 4.764 2.528 9.366 4.19 15.04 11.63-14.04 22.76-27.474 34.46-41.596l-30.044 5.726c-2.073 5.3-3.785 9.676-5.933 14.655m-22.6-6.344c2.963 3.782 6.652 5.53 11.3 3.474 4.146-1.832 6.382-5.113 6.186-9.785-.204-4.86-3.178-8.165-7.518-8.428-3.137-.19-6.979 1.537-9.52 3.615-3.3 2.698-2.72 6.806-.447 11.124z" fill="#F5F9FA"/>
        <path d="M793.197 555.282c.172-4.184.344-8.367.87-12.932.525-.424.67-.511.786-.642 15.294-.09 30.588-.275 45.882-.25 38.087.06 76.174.215 114.725.338.664.31.864.615 1.411 1.278.546.627.805.814 1.123.919.39 1.053 1.253 2.195 1.074 3.14-.428 2.263-1.45 4.405-2.044 6.646-.874 3.297-1.677 6.62-2.34 9.965-.669 3.38-1.254 6.788-1.647 10.21-.36 3.136.573 5.488 4.208 6.17 1.077.203 1.95 1.492 3.805 3.012-3.706.697-6.059 1.14-9.219 1.781-2.834.368-4.861.538-7.339.592-49.779-.09-99.107-.062-148.871-.194-1.17-4.45-1.903-8.741-2.701-13.413 2.444-.153 3.895-.323 5.346-.323 30.283-.002 60.566-.03 90.848.047 18.626.047 37.252.262 55.942.742.708.671 1.591 1.458 1.96 1.265 4.254-2.23 4.089-14.867-.555-17.688-1.857-.248-3.324-.507-4.79-.505-47.016.062-94.031.155-141.047.215-2.475.003-4.951-.243-7.427-.373m155.287-1.704s-.056-.1 0 0z" fill="#F7FAFA"/>
        <path d="M202.007 571.25c.445.108.891.216 2.115.359 1.614 1.07 3.087 2.056 3.167 3.146.251 3.413-.023 6.864-.094 10.3-.815.072-1.63.143-3.289.259-52.208.217-103.573.39-154.938.562.362-3.581.411-7.239 1.247-10.706.314-1.304 2.452-2.168 4.567-3.364 33.632-.165 66.456-.17 99.28-.246 15.981-.036 31.963-.202 47.945-.31z" fill="#F7FAFA"/>
        <path d="M201.813 570.937c-15.788.42-31.77.587-47.751.623-32.824.075-65.648.08-98.886.064-.528-4.895-.64-9.739-.804-15.038 5.081-.654 10.215-1.02 15.348-1.026 45.069-.047 90.137-.03 135.885.117.862.184 1.045.219 1.229.254-1.192.668-2.373 1.894-3.576 1.917-9.516.178-19.038.232-28.556.125-23.44-.266-46.88-.792-70.32-.9-11.448-.053-22.898.732-34.35.854-4.403.046-8.815-.699-13.187-1.08C54.93 569.995 54.93 569.999 67.397 570c42.963.002 85.927-.006 128.89.028 1.778.001 3.555.389 5.526.91z" fill="#0E2234"/>
        <path d="M49.011 586.162c51.322-.458 102.687-.63 154.51-.711.458.092.432.343.466.698.035.356.017.836.017.836-51.283 0-102.566-.002-154.3.001-.519-.177-.584-.358-.693-.824z" fill="#02121F"/>
        <path d="M956.488 520.627c-.3-7.335-.367-15.007-.365-23.142.246 7.293.421 15.05.365 23.142z" fill="#EFF3F4"/>
        <path d="m944.943 585.625 6.517-.547c.404 1.598.371 3.234.103 5.209-2.188-1.094-4.14-2.528-6.418-4.2-.326-.236-.202-.462-.202-.462z" fill="#172F3E"/>
        <path d="M44.353 518.064c.309.386.37.831.34 1.604-.256-.296-.422-.92-.34-1.604z" fill="#F5F9FA"/>
        <path d="M956.452 530.797c-.23-.27-.286-.696-.26-1.437.199.218.316.75.26 1.437z" fill="#EFF3F4"/>
        <path d="M956.365 538.879c-.128.09-.283-.38-.199-.613.424-.046.505.205.2.613z" fill="#EFF3F4"/>
        <path d="M957.883 543.777c-.207.11-.466-.076-.775-.56.206-.11.465.077.775.56z" fill="#EFF3F4"/>
        <path d="M951.2 591.771c-.308.021-.47-.17-.586-.386-.018-.035.17-.18.456-.324.228.13.26.31.13.71z" fill="#172F3E"/>
        <path d="M759.98 689.981c-.454 1.613-.91 3.226-2.161 4.913-46.035.058-91.271.017-136.508.036-32.424.013-64.848.108-97.273.166-12.323-13.62-26.119-13.577-37.144-7.986-2.614 1.326-4.78 3.521-7.21 5.234-1.284.905-2.693 1.633-4.842 2.475-58.845.067-116.893.086-174.941.14-18.955.019-37.91.13-56.865.199-.477-1.439-1.37-2.877-1.372-4.316-.077-48.162-.07-96.325-.065-144.487 0-.324.146-.647.341-1.455h4.765c168.493.022 336.986.043 505.479.08 2.484 0 4.969.197 7.59 1.136.072 33.565-.027 66.296-.04 99.027-.006 14.946.159 29.892.246 44.838m-495.67-112.71c-.343 1.506-.967 3.01-.98 4.52-.065 8.304.023 16.609.051 24.914.068 19.421.131 38.843-.056 59.043.2 1.272.398 2.543.581 3.717h57.821v-21.582h-33.599v-14.095h28.61V612.9h-28.817v-12.953h32.809V577.39c-18.823 0-37.282 0-56.42-.119m274.671 21.026c-3.76-11.246-11.644-18.738-23.123-20.014-11.939-1.326-24.14-.295-36.475-.295v91.442h22.714v-31.734c6.773 10.047 12.955 19.323 19.287 28.494.958 1.388 2.583 3.216 3.96 3.268 8.182.307 16.383.152 25.404.152l-25.115-35.627c4.506-5.466 8.43-10.227 12.876-15.424.107-.653.214-1.307.253-2.303 0 0 .232-.259.863-.166 1.37 1.975 2.74 3.95 4.237 6.591-.11.433-.218.865-.895 1.43.181.971.362 1.943.835 3.692.198 2.152.396 4.304.451 7.081.188.37.376.74.827 1.812.321.943.61 1.9.968 2.828 11.68 30.312 42.348 39.385 67.878 27.3 22.251-10.532 32.42-37.228 23.46-59.63-9.66-24.156-32.405-35.779-57.15-29.68-17.433 4.295-28.061 16.234-34.825 32.91-.062.38-.125.759-.133 1.422 0 0-.242.158-.97.148-1.394-.332-2.79-.663-4.305-1.657.061-.44.122-.881.888-1.35.52-.832 1.625-1.827 1.447-2.463-.447-1.593-1.475-3.023-2.47-4.913 0 0 .059-.438.115-1.044-.27-.518-.539-1.037-1.002-2.27m111.157 69.768c.663.571 1.318 1.629 1.99 1.64 7.12.12 14.242.075 21.922.075v-49.251c13.648 15.893 26.63 31.053 39.692 46.145 1.118 1.292 2.724 2.948 4.178 3.026 6.277.334 12.583.143 18.985.143V577.39h-24.13v48.121c-1.702-2.04-2.736-3.321-3.813-4.566-11.648-13.47-23.259-26.971-35.01-40.35-1.452-1.652-3.582-3.601-5.53-3.759-6.042-.488-12.149-.179-18.316-.179 0 30.872 0 60.675.032 91.408m-274.145-90.832c-9.726-2.239-19.062-1.572-28.01 3.274-9.802 5.31-15.99 19.45-13.458 30.272 2.49 10.64 10.46 15.726 19.3 20.034 4.629 2.256 9.635 3.82 14.026 6.44 2.04 1.219 4.503 4.55 4.103 6.319-.501 2.22-3.444 4.674-5.862 5.525-6.244 2.198-11.572-1.174-16.725-4.222-2.944-1.74-5.726-3.756-8.842-5.821l-11.418 17.309c10.911 11.679 23.674 16.163 41.22 14.67 13.007-1.107 23.455-9.865 26.393-22.122 2.792-11.645-2.712-23.323-14.633-29.98-6.077-3.392-12.598-5.98-18.812-9.14-2.8-1.423-5.821-3.152-4.674-7.178 1.158-4.069 4.501-5.14 8.21-5.077 1.951.033 3.984.49 5.818 1.186 3.822 1.448 7.536 3.181 11.48 4.878l8.487-16.27c-4.106-5.351-9.722-7.969-16.603-10.097m77.57 3.57c-1.996-.781-3.956-2.118-5.996-2.254-12.693-.845-25.405-1.422-38.392-2.103v93.051h22.8v-26.998c3.496-.159 6.631-.176 9.742-.464 11.172-1.032 20.6-5.172 26.214-15.526 8.096-14.93 3.626-36.64-14.368-45.706z" fill="#FCFDFD"/>
        <path d="m696.815 500.954-19.953 18.26-175.907-167.993-177.78 168.745c-5.628-6.042-11.028-12.087-16.75-17.808-1.436-1.435-3.91-1.83-6.644-2.616-9.746.245-18.754.402-27.763.559l-3.915-.512 232.13-217.22 85.588 81.242v-42.577h51.136v5.281c.002 25.833.087 51.666-.083 77.497-.026 4.062 1.403 6.797 4.255 9.47 29.658 27.787 59.228 55.669 88.84 83.506.834.785 1.854 1.373 3.844 2.82-2.417.187-3.292.255-4.96.322-9.808.052-18.825.105-27.842.158a27.405 27.405 0 0 0-2.929-.12c-.857.379-1.062.682-1.267.986z" fill="#FCFDFE"/>
        <path d="M221.95 423.793c-.43.049-.859.098-1.71-.035-.7-.067-.976.048-1.252.163-3.741-1.6-7.855-2.651-11.16-4.894a1766.599 1766.599 0 0 1-42.448-29.712c-11.917-8.61-15.2-20.928-7.589-33.526 7.097-11.749 15.297-22.976 24.108-33.517 24.196-28.946 52.256-53.986 81.116-78.457 9.538 6.105 18.937 12.025 28.183 18.176.98.652 1.806 2.902 1.44 3.983-2.061 6.092-3.373 12.136-1.835 18.592.697 2.928-1.088 4.195-3.857 4.453-2.112.197-4.21.548-6.734.887l5.029 18.312-10.36 2.42c1.104 4.795 2.2 9.563 3.374 14.668l-6.913 2.138c2.525 5.57 5.067 11.176 7.231 17.243-.763 1.313-1.226 2.14-1.523 3.022-1.743 5.163-2.664 10.781-5.296 15.436-12.01 21.238-28.599 38.9-45.3 56.426-1.417 1.488-3 2.818-4.505 4.222z" fill="#FDFEFE"/>
        <path d="M567.147 894.011a82.235 82.235 0 0 0-.09 3.05c.306 5.483.599 10.155.892 14.827-.436.085-.872.17-1.881.26-.734.081-.894.157-1.053.233-.455-.05-.909-.099-1.94-.15-.733.07-.889.143-1.045.216-1.093-.038-2.186-.076-3.828-.583-2.636-16.533-4.722-32.598-6.809-48.662l-1.46.127v48.497c-.431.096-.862.193-2.058.271-3.201-.018-5.638-.018-8.057-.018l-1.782-13.083a214.32 214.32 0 0 1-.057-3.048c-1.206-11.404-2.41-22.017-3.616-32.63l-2.296.11v41.57c-.053.755-.106 1.51-.147 3.01.008 1.761.005 2.778.001 3.794-.432.128-.865.256-1.862.4-.717.096-.87.175-1.024.254l-4.027-.223a46.19 46.19 0 0 0-2.99.064c-.648-5.317-1.448-10.62-1.911-15.953-.875-10.062-1.543-20.142-2.338-30.211-.074-.937-.44-1.85-1.2-2.743-2.69 15.794-2.72 31.685-2.62 48.07.051.491-.066.403-.066.403-.731.091-1.462.183-3.007.262-3.1-.01-5.385-.01-7.818-.01l-2.877-49.047-1.883-.046c-.283 4.655-.565 9.31-.976 14.351-.133 1.47-.138 2.553-.254 4.017-.205 2.462-.298 4.544-.391 6.626-.216 2.374-.431 4.75-.674 8.02-.028 5.825-.028 10.754-.028 15.865H484.78l-2.507-48.312-2.093-.032-3.01 47.403c-.487.435-.975.87-2.215 1.273-2.16.086-3.567.201-4.975.317-.45-.084-.9-.169-2.098-.363-1.06-1.59-1.593-3.062-1.649-4.551a3884.024 3884.024 0 0 1-1.298-41c-.165-1.363-.403-2.367-.642-3.371l-.972.155a51.892 51.892 0 0 1-.299 3.02c-1.02 9.8-1.942 19.183-2.863 28.566-.085.443-.17.886-.404 2.01-.307 3.451-.465 6.22-.623 8.99l-.352 3.999c-3.896 2.987-9.233 2.59-11.014-.023.054-.438.107-.877.188-1.896-.027-.75-.082-.92-.137-1.09.054-2.372.107-4.745.165-8.02.005-12.507.005-24.112.005-35.718l-1.866-.126-4.449 34.843c-.223 2.077-.446 4.155-.773 7.001-1.59 2.848.913 7.178-3.85 7.405-1.1-.052-2.2-.104-4.011-.165-1.132.07-1.553.147-1.974.225-.428-.56-.856-1.122-1.212-2.44.034-1.497-.004-2.236-.042-2.976l1.556-43.668-1.4-.16c-1.295 7.877-2.649 15.745-3.87 23.632-1.143 7.373-1.988 14.797-3.361 22.123-.243 1.295-2.306 2.876-3.764 3.176-2.534.52-5.252.144-8.538.144l7.637-58.069h161.542l7.781 58.461-11.964-.634c-.49-3.101-.973-6.153-1.493-9.931-.217-1.094-.396-1.462-.575-1.829-.128-1.185-.256-2.37-.448-4.31-1.864-11.346-3.664-21.936-5.464-32.526l-1.644.18 1.342 30.397z" fill="#F7FBFB"/>
        <path d="m850.089 429.291 10.203-2.574c5.856 19.348 11.66 38.117 17.096 56.99.683 2.37-.566 5.295-1.128 9.53l-16.602-13.182-5.025 16.469-13.26-11.754-7.612 17.943c-11.812-13.626-17.155-29.876-24.485-45.22.894 16.717 3.146 33.38.83 51.447l-15.777-14.232-5.79 17.419-11.988-12.805c-2.027 4.297-3.91 8.754-6.234 12.97-.829 1.502-2.725 2.415-4.135 3.598-1.36-1.91-3.445-3.648-3.952-5.763-1.917-8.006-3.277-16.144-4.93-24.215-2.048-10.002-4.18-19.987-5.864-30.426 1.855-.786 3.306-1.094 4.738-1.471 31.306-8.237 62.61-16.48 93.915-24.724z" fill="#FAFDFD"/>
        <path d="M511.963 779.987c.412 5.33 2.082 6.948 8.016 6.984 13.618.082 27.238-.023 40.857-.013 7.633.006 13.86 2.756 18.26 10.153 2.04 4.482 1.82 8.213-.103 11.886-.53.56-1.06 1.118-2.24 1.925-2.307.37-3.962.601-5.617.602-47.407.021-94.814.028-142.22-.001-2.306-.002-4.61-.342-6.915-.525-.316-.38-.632-.758-1.224-1.038-.277.1-.216.023-.216.023-7.042-12.22 4.585-22.92 17.694-22.955 13.305-.036 26.61-.007 39.915-.024 9.078-.012 11.001-2.718 9.714-11.576-2.3-15.842-4.562-31.717-5.918-47.657-.547-6.44.642-13.26 2.255-19.598 2.552-10.023 10.685-15.453 19.02-13.224 2.621.701 4.787 3.106 7.455 5.31-.101 3.941-1.132 7.369-.788 10.653 2.017 19.29 3.073 38.564 1.275 57.944-.34 3.655.49 7.418.78 11.131m-14.432-65.964c3.452 1.777 6.491.987 7.586-2.603.557-1.825-.327-5.453-1.665-6.154-1.764-.924-5.26-.585-6.852.676-2.57 2.034-2.613 5.173.931 8.081z" fill="#F9FCFC"/>
        <path d="M424.526 153.666c18.253-14.965 37.588-27.922 61.407-32.206 13.03-2.343 26.034-1.588 37.947 4.264 5.463 2.683 9.798 7.79 14.403 12.058A393.6 393.6 0 0 1 554.3 153.53c2.53 2.629 5.796 5.173 3.679 9.845-.351.775.95 2.618 1.876 3.599 5.24 5.547 10.6 10.983 16.467 17.02L550.68 211.13c-4.623-5.426-8.768-10.645-13.352-15.444-1.284-1.345-3.851-1.49-5.856-2.098-.43-.13-1.047.31-1.455.157-7.49-2.803-11.736 1.613-15.621 7.674l-25.023-23.47 8.666-11.11c-10.437-12.387-24.827-17.137-41.417-15.377-7.997.848-15.856 2.99-24.61 4.534-3.051-.785-5.268-1.557-7.486-2.33z" fill="#FBFDFD"/>
        <path d="M220.851 781.92c-4.545 1.06-2.459-1.55-1.71-3.211 1.896-4.207 4.627-8.187 5.711-12.581 2.837-11.498-1.783-20.888-11.118-27.09-10.186-6.768-21.316-12.109-31.98-18.167-23.033-13.085-40.282-31.723-52.175-55.274-2.123-4.203-3.253-9.011-4.22-13.67-1.473-7.093 2.502-12.337 9.694-13.514 7.865-1.288 15.318.561 22.165 4.045 28.574 14.539 49.369 36.147 59.775 66.982 1.327 3.93 2.6 7.956 4.56 11.58 6.438 11.906 15.965 20.244 36.204 16.773 1.616-.277 3.263-.377 4.779-.012-3.64 4.3-7.132 8.083-10.69 11.804-10.317 10.791-20.661 21.558-30.995 32.335m-81.894-120.41c4.317 5.018 8.264 5.842 12.918 2.695 4.164-2.815 5.317-7.165 2.955-11.15-2.719-4.587-7.097-6.087-11.922-4.084-4.898 2.034-6.314 5.912-3.951 12.538z" fill="#FAFCFC"/>
        <path d="M739.897 733.284c-.217-5.295 3.519-6.53 7.602-7.318 6.818-1.314 13.681-2.41 20.466-3.872 8.126-1.752 13.944-6.709 17.98-13.856 4.98-8.816 9.645-17.824 14.955-26.435 10.387-16.842 23.096-31.735 39.266-43.32 6.746-4.832 14.09-8.778 22.856-8.581 7.522.168 11.268 3.214 12.535 10.982-.686 2.187-.864 3.992-1.782 5.262-8.03 11.11-16.278 22.061-24.294 33.18-11.487 15.935-25.66 29.236-41.534 40.49-12.727 9.023-21.216 20.187-24.26 35.514-1.05 5.287-2.532 10.49-4.124 15.609-3.372-3.125-6.395-6.17-9.505-9.123-10.037-9.529-20.105-19.024-30.161-28.532m117.289-93.058c-1.78.286-3.688.259-5.316.92-4.112 1.673-5.968 4.992-6.009 9.393-.04 4.332 2.446 6.69 6.246 7.937 4.787 1.57 10.863-1.933 12.54-7.139 1.488-4.614-1.076-8.775-7.461-11.11z" fill="#FBFDFD"/>
        <path d="M714 854c-.164-.284-.328-.567-.84-1.233a317.517 317.517 0 0 0-4.463-4.217s-.11-.11-.347-.426c-6.232-6.026-12.225-11.736-18.219-17.445.004-.316-.129-.554-.736-1.076-3.3-3.176-6.264-5.991-9.227-8.807 0 0-.113.14-.153-.22-1.654-1.821-3.268-3.283-4.882-4.745 0 0-.098.108-.156-.238-2.737-2.898-5.415-5.452-8.092-8.005 0 0-.14-.306-.482-.612-2.02-1.885-3.7-3.463-5.378-5.04-.004-.355-.15-.633-.8-1.233-6.331-6.449-7.927-13.579-5.694-21.7 1.997-7.261 7.482-11.343 13.473-14.991 3.37-.368 6.742-.735 10.871-.988 3.388 2.085 6.259 3.802 8.607 6.063a13012.715 13012.715 0 0 1 60.752 58.868c4.244 4.14 8.136 8.639 11.794 13.018-8.274 2.241-14.96 6.137-19.182 13.434-2.456 4.245-4.796 8.558-7.554 12.795a298.968 298.968 0 0 1-7.274-2.253c-.453-.34-.906-.68-1.74-1.347a244.574 244.574 0 0 0-2.522-2.04s-.122-.259-.395-.58a300.869 300.869 0 0 0-4.646-4.439s-.115-.131-.34-.427a47.147 47.147 0 0 0-2.375-2.117z" fill="#FBFDFD"/>
        <path d="M337.505 295.456c-7.905-13.164-11.046-27.316-11.608-42.086-.112-2.939-1.003-4.515-3.42-5.87-4.039-2.262-7.927-4.793-12.473-7.576L299.7 255.546l-27.797-18.51c2.764-5.073 5.102-9.634 7.699-14.044 2.165-3.676 1.472-5.813-2.215-8.3-6.158-4.154-12.15-8.733-17.47-13.897-6.052-5.875-5.243-9.013 2.493-12.454 12.292-5.467 24.133-6.354 36.39 1.386 19.65 12.409 39.898 23.868 60.363 36.009-3.162 6.097-5.97 12.105-9.404 17.731-.91 1.49-3.749 1.803-6.633 3.063 1.328 17.083-3.65 35.268 3.733 52.82.508 1.209-.656 3.122-1.043 4.708l-1.585.174c-2.171-2.826-4.342-5.652-6.726-8.776z" fill="#FAFCFC"/>
        <path d="M334.604 824.088c-1.952 2.58-3.903 5.16-6.479 7.705-20.016-15.296-39.409-30.556-58.77-45.791.218.597.376 1.567.874 2.309 10.677 15.892 22.957 30.446 37.105 43.338 3.955 3.604 8.702 6.338 13.086 9.47-1.267 1.871-2.533 3.742-4.456 5.695-10.344-6.867-20.032-13.817-30.888-21.605 2.247 3.641 3.552 6.465 5.486 8.758 6.066 7.194 12.369 14.188 18.58 21.259l-5.338 6.618c-23.535-17.644-43.475-38.942-64.405-59.966l45.931-43.526c17.62 17.797 35.871 37.965 59.964 52.033-1.301 1.842-2.507 3.55-4.305 5.286-11.372-5.56-22.152-11.15-33-16.882-.174-.183-.277-.224-.381-.266.11.176.22.352.378.87 4.453 5.195 8.569 10.36 13.353 14.804 4.017 3.732 8.814 6.626 13.265 9.89z" fill="#FAFDFD"/>
        <path d="M836.634 389.663c2.765-.822 5.116-1.764 7.546-2.063 2.694-.332 5.461-.076 8.16-.076 2.173-5.697 5.552-12.176 7.076-19.065 2.86-12.933-11.698-25.228-23.88-20.393-2.94 1.167-6.468 3.925-7.334 6.698-3.405 10.905-11.841 13.952-21.587 16.312-14.199 3.438-28.275 7.42-42.307 11.501-9.49 2.761-12.24 7.778-10.521 17.595.109.625.014 1.285.014 2.169l-10.995 2.846c-8.094-18.234 3.604-32.308 17.947-35.752 14.44-3.467 28.66-7.844 43.092-11.342 5.647-1.368 9.523-3.932 11.933-9.264 3.772-8.345 10.722-12.819 19.44-14.848 15.909-3.703 33.665 8.262 36.672 24.375 1.478 7.92 1.104 15.523-2.082 22.875-4.112 9.488-11.369 14.972-21.456 17.579-33.691 8.707-67.288 17.778-100.93 26.679-1.566.414-3.212.524-5.094.818l-3.265-10.791c32.499-8.59 64.845-17.14 97.57-25.853z" fill="#F6FAFA"/>
        <path d="M421.762 282.137c-3.985-3.691-8.514-6.955-11.828-11.173-5.006-6.374-3.742-13.921 2.636-20.094 16.756-16.218 33.671-32.272 50.331-48.587 5.825-5.704 11.09-11.98 17.087-18.512 7.97 7.746 14.953 14.531 21.889 21.904-2.346 2.734-4.816 4.727-6.913 7.056-7.087 7.876-14.02 15.89-21.052 23.815-12.312 13.874-24.564 27.805-37.088 41.485-1.808 1.976-4.974 2.723-7.537 3.987-1.484.731-3.018 1.36-4.53 2.036-.197-.039-.395-.078-.865-.63-.892-.772-1.511-1.03-2.13-1.287z" fill="#FCFDFD"/>
        <path d="M422.012 845.095c-.648-1.225-1.952-2.521-1.828-3.661.483-4.417 1.421-8.784 2.235-13.43H575.54l2.805 16.42c-2.28.206-3.907.353-6.413.527-8.856.009-16.832-.035-24.808-.026-41.704.05-83.408.112-125.112.17z" fill="#F9FCFC"/>
        <path d="M725.928 322.024c-.232.788-.465 1.576-1.128 2.793a16709.394 16709.394 0 0 0-19.444 20.42l-55.161-53.68 23.88-22.051c2.104 2.5 4.55 5.892 7.476 8.801 14.723 14.642 29.572 29.157 44.377 43.717z" fill="#F9FCFC"/>
        <path d="M702.91 229.013c15.467-11.224 30.798-22.641 46.458-33.588 7.54-5.27 16.06-3.82 22.495 2.682 8.548 8.637 17.26 17.114 25.692 25.862 6.353 6.591 7.354 12.254 2.38 19.788-10.981 16.632-22.527 32.891-34.042 49.592l-8.25-9.48c10.17-15.448 20.27-30.793 30.642-46.707-.206-2.084-.24-4.034-1.23-5.049-8.13-8.332-16.419-16.509-24.702-24.69-2.44-2.41-5.115-2.008-7.668-.167-8.611 6.211-17.19 12.467-25.783 18.706-.345-.024-.624.1-1.256.683a8936.38 8936.38 0 0 1-16.693 11.75l-8.043-9.382z" fill="#F5F9FA"/>
        <path d="M143.958 484.883c-.44-.004-.879-.009-2.04 0-4.432-.68-8.142-1.372-11.852-2.065-10.268-5.531-17.003-13.777-17.702-25.63-.754-12.784 8.518-24.19 21.358-27.475 12.673-3.243 26.038 2.78 32.264 14.571.694 1.314 1.23 2.711 1.965 4.813 3.187 12.337-1.148 24.475-11.245 30.708-3.833 2.367-8.475 3.424-12.748 5.078m10.48-31.591c-2.536-8.037-7.649-11.301-16.153-10.313-5.829.677-10.801 5.684-11.326 11.405-.816 8.893 4.821 15.688 13.168 15.874 8.873.197 15.133-6.75 14.311-16.966z" fill="#F7FAFA"/>
        <path d="m749.002 447.044-4.527-12.133 111.147-29.24c1.016 3.969 1.974 7.71 2.617 11.868-21.66 6.092-43.01 11.752-64.35 17.447-14.97 3.995-29.925 8.037-44.887 12.058z" fill="#F6FAFA"/>
        <path d="M726.192 321.848c-15.069-14.384-29.918-28.9-44.641-43.54-2.926-2.91-5.372-6.302-7.476-8.802l-23.88 22.05 55.161 53.681c5.788-6.086 12.4-13.038 19.326-20.116.87 3.803 2.382 6.046 6.934 4.316.74-.281 2.19 1.307 2.999 2.221-1.572.557-3.186.548-4.031 1.35-5.227 4.961-10.28 10.105-15.466 15.115-.074-.073-.224-.218-.288-.592-5.364-2.758-7.217-2.08-7.83 2.47v-.002c-1.974.111-3.896 2.142-5.512-1.631-1.04-2.427-4.973-3.556-7.478-5.44-1.16-.872-2.168-2.055-2.96-3.282-1.215-1.884-1.813-4.292-3.325-5.84-5.987-6.126-11.815-12.524-18.495-17.824-6.303-5-9.133-13.22-17.038-16.75-3.541-1.58-2.894-6.154-2.915-9.748-.006-1.01-.424-2.017-.653-3.026-.894.396-1.755.997-2.688 1.148-2.14.344-4.314.469-7.027.738 1.412-2.226-4.247-4.093.716-6a85.926 85.926 0 0 1 2.88 3.376l23.098-22.55-3.242-4.317c-1.54 1.76-2.724 3.11-3.907 4.46-.545-5.628.241-6.273 8.287-6.412.65-.196.783-.353.754-.394-.131-.186-.309-.338-.47-.502-.06-1.342-3.98-2.975.682-3.621 1.668 5.448 3.317 10.243 9.16 11.667-.042.02.047-.013.416.167 1.864.976 3.448 1.737 4.972 2.534-.06.036-.008-.095.058.197.392.502.717.712 1.242.963.462.195.588.424.545 1.127.69 4.894 6.462 10.284 10.498 10.157.148.062.304.342.095.67.208 1.517.308 3.001 1.095 3.844 4.608 4.938 8.994 10.193 14.19 14.444 6.321 5.172 11.315 11.323 16.013 17.842.155 1.892.31 3.783.2 5.852z" fill="#0A2940"/>
        <path d="M726.018 865.32c2.303.365 4.605 1.1 7.597 2.14 5.26-.695 10.523-.607 14.226-2.967 4.725-3.011 8.341-7.866 12.148-12.18 3.095-3.508 2.92-7.487.436-11.386-4.055-4.333-7.947-8.833-12.19-12.972-20.186-19.69-40.44-39.31-60.753-58.868-2.348-2.26-5.22-3.978-8.165-6.1 2.029-.809 4.375-1.467 7.264-2.277l-4.709-2.175.522-10.95c1.992.213 3.83.41 5.684 1.222-1.177 1.934-2.368 3.253-3.68 4.707.795.918 1.275 1.565 1.847 2.118 14.957 14.465 30.008 28.835 44.864 43.402 13.421 13.16 26.632 26.535 39.935 39.815l-6.854.548 1.331 11.153c-1.514 3.229-3.226 6.424-4.52 9.78-1.02 2.647-1.075 5.731-5.483 4.143-1.43-.516-3.786.11-5.136 1.05-5.38 3.749-10.57 5.728-17.73 5.35-4.98-.265-5.798-1.645-6.634-5.553z" fill="#0D283F"/>
        <path d="M684.134 268.64c.01-.304-.117-.533-.679-1-.602-.537-.905-.76-1.208-.983 0 0-.053.13-.117-.215-1.977-2.175-3.906-3.988-5.8-5.837-7.3-7.126-7.295-7.129-.756-14.667.206-.237.3-.572.445-.862.438-.032.876-.064 1.755.259a20904.527 20904.527 0 0 1 64.776 64.697 487.784 487.784 0 0 0 6.456 6.942c.293.796.586 1.593.696 2.944-2.48 2.662-4.777 4.77-7.092 6.895l-5.546-4.975c-.015-.345-.17-.605-.815-1.152-2.32-2.293-4.29-4.216-6.262-6.14 0 0-.114-.4-.42-.781-11.759-11.663-23.212-22.945-34.665-34.227 0 0-.156-.28-.475-.596l-10.293-10.302z" fill="#F6FAFA"/>
        <path d="M542.92 473.991c-.484.51-.97 1.02-2.125 1.568-11.046.136-21.422.234-31.798.332-.39-1.027-1.11-2.051-1.119-3.082-.084-10.142-.05-20.285-.05-30.468 11.629 0 23.148 0 34.755.778.17 10.81.254 20.84.338 30.872z" fill="#F9FCFC"/>
        <path d="M688.143 234.073a16.92 16.92 0 0 0 2.13-.88c2.393.437 4.576.818 6.067 2.04 3.031 2.487 5.69 5.429 8.502 8.183a47151.91 47151.91 0 0 1 46.559 46.915 360.176 360.176 0 0 0 5.542 5.194s.184.365.5.685a271.976 271.976 0 0 1 2.88 3.218s.09.116.29.507c3.746 5.119.293 7.87-2.723 10.744-.168.07-.335.14-1.051.362-2.973-1.933-5.396-4.017-7.876-6.344-.265-.536-.549-.692-1.015-1.031-20.072-20.429-39.98-40.595-60.058-60.59-3.471-3.458-3.912-6.111.253-9.003z" fill="#F2F8FA"/>
        <path d="M542.34 520.857h-34.314v-33.35c11.139 0 22.377 0 34.116-.053.5-.053.564.088.564.088.006.328.013.655-.032 1.665-.146 11.005-.24 21.328-.334 31.65z" fill="#F7FAFA"/>
        <path d="M459.532 448.01c.068-.548.136-1.096.203-2.124-.002-.48-.16-.919-.16-.919.06-.157.118-.315.168-.923-.01-.45-.185-.871-.185-.871.517-.55 1.04-1.586 1.55-1.579 11.103.153 22.204.421 33.38 1.422.074 11.3.074 21.844.074 32.822h-34.227c-.166-.712-.332-1.423-.525-2.949-.111-8.836-.194-16.858-.278-24.88z" fill="#F5F9FA"/>
        <path d="M494.054 520.272c-11.29.416-22.388.416-33.834.416v-33.244h34.025c0 10.965 0 21.688-.191 32.828z" fill="#F7FBFB"/>
        <path d="M771.261 838.832c-13.52-13.263-26.73-26.637-40.152-39.798-14.856-14.567-29.907-28.937-44.864-43.402-.572-.553-1.052-1.2-1.848-2.118 1.313-1.454 2.504-2.773 3.842-4.38 1.431-.53 2.717-.77 4.459-.597a824.884 824.884 0 0 0 4.208 3.675c.011.357.182.606.862 1.074 1.393 1.27 2.435 2.21 3.477 3.15 0 0 .118.194.383.481a87.658 87.658 0 0 0 2.365 2.111c.494.608.987 1.216 1.899 2.194 2.657 2.475 4.896 4.58 7.136 6.685.519.606 1.037 1.213 1.942 2.228 1.485 1.35 2.583 2.29 3.682 3.23 0 0 .315-.37.265.074.513.95 1.077 1.453 1.64 1.957 0 0 .227-.197.306.198 2.704 2.805 5.328 5.215 7.953 7.625 0 0 .111-.172.16.172.689.794 1.33 1.245 1.97 1.696 0 0 .039-.08.123.236 1.018 1.139 1.952 1.96 2.886 2.783a71.92 71.92 0 0 0 1.805 2.141c2.089 2 3.789 3.594 5.49 5.187 0 0 .112.19.37.52a602.162 602.162 0 0 0 7.342 7.107s.036-.059.1.245c.68.781 1.295 1.26 1.91 1.737 0 0 .025-.045.13.285 4.26 4.227 8.414 8.124 12.568 12.02 0 0 .306-.33.293.124 4.612 4.98 9.236 9.506 13.86 14.031 0 0-.12.296-.143.694-1.938 2.452-3.855 4.506-5.77 6.56 0 0-.432.058-.649.075z" fill="#F2F8FA"/>
        <path d="M779.871 771.06c1.284-5.24 2.766-10.443 3.816-15.73 3.044-15.327 11.533-26.491 24.26-35.514 15.875-11.254 30.047-24.555 41.534-40.49 8.016-11.119 16.264-22.07 24.294-33.18.918-1.27 1.096-3.075 1.85-4.894 1.376 11.175-3.694 20.713-9.36 29.92-11.957 19.425-28.013 34.893-46.881 47.549-3.303 2.215-6.538 4.533-9.871 6.7-11.46 7.45-17.18 18.326-19.543 31.508-1.071 5.975-3.152 11.768-5.184 18.137-1.911-1.007-3.413-2.506-4.915-4.006z" fill="#CBD7E0"/>
        <path d="M749.004 447.45c14.96-4.427 29.916-8.469 44.885-12.464a22129 22129 0 0 1 64.404-17.08c1.926-.252 3.484-.452 5.042-.652-2.948 2.747-4.153 8.09-10.21 5.243-2.006-.943-5.498 1.04-8.193 2.013-.474.171-.791 2.193-.394 2.944.356.675 1.925 1.226 2.715.996.66-.192.965-1.596 1.427-2.463l1.003.776c.12.62.24 1.239.383 2.193-31.282 8.578-62.586 16.822-93.892 25.059-1.432.377-2.883.685-4.724 1.063-1.08-2.382-1.762-4.802-2.446-7.628z" fill="#092A41"/>
        <path d="M660.908 187.748c-11.239 3.994-13.874 13.385-15.858 23.21-.415 2.055-.788 4.12-1.431 7.501-3.738-24.106-9.145-30.617-26.311-33.712 5.941-3.032 14.079-4.969 18.587-10.097 4.654-5.292 5.777-13.688 7.66-18.654 1.946 4.86 3.27 13.123 7.945 18.435 4.608 5.235 12.611 7.48 18.177 10.52a596.364 596.364 0 0 0-8.77 2.797z" fill="#F4F8FA"/>
        <path d="M635.062 836.73c3.015 12.526 12.702 16.334 23.823 19.27-19.873 1.784-25.132 15.266-26.893 32.182-2.172-16.99-7.6-30.691-27.884-32.423 17.758-2.562 25.87-13.287 27.106-30.324l1.17.655c.87 3.415 1.74 6.83 2.678 10.64z" fill="#F4F8FA"/>
        <path d="m782.974 780.05-7.177 9.683c-14.979-14.618-29.323-28.633-43.688-42.628-6.77-6.597-6.784-6.576-.8-13.714.419-.5.723-1.098 1.265-1.935a351.697 351.697 0 0 1 5.161 4.768c5.717 5.428 11.078 10.335 16.287 15.399 9.697 9.427 19.306 18.946 28.952 28.427z" fill="#F4F8FA"/>
        <path d="M424.905 284.365c1.364-.986 2.898-1.616 4.382-2.347 2.563-1.264 5.73-2.011 7.537-3.987 12.524-13.68 24.776-27.611 37.088-41.485 7.033-7.925 13.965-15.94 21.052-23.815 2.097-2.329 4.567-4.322 7.066-6.765 1.936 1.172 3.673 2.639 5.814 4.448-7.498 8.26-14.721 16.197-21.923 24.154-13.82 15.27-27.584 30.589-41.461 45.806-5.472 6-11.67 7.243-19.555 3.991z" fill="#CDD9E1"/>
        <path d="M687.824 233.935c-3.846 3.03-3.405 5.683.066 9.14 20.078 19.996 39.986 40.162 59.671 60.604-3.456.49-4.967 2.077-4.72 5.5-.163.186-.462.58-.462.58-21.388-21.357-42.776-42.713-64.277-64.383 1.806-2.389 2.976-4.573 3.424-7.611.332-2.254 2.12-5.482 6.298-3.83z" fill="#0E283C"/>
        <path d="M359.83 845.702c2.433-6.438 4.65-12.578 6.31-17.177 1.933 5.126 3.006 12.775 7.218 17.786 4.208 5.006 11.558 7.371 17.043 10.607-16.496 1.352-22.328 13.29-24.343 29.205-1.432-16.178-8.038-27.509-24.511-29.261 5.929-3.565 11.998-7.213 18.284-11.16z" fill="#F2F7F9"/>
        <path d="M580.25 195.083c1.69-1.565 2.727-3.374 5.109-1.106 6.248 5.949 12.74 11.64 20.186 18.386l-20.361 17.878-20.538-21.476c5.396-4.728 10.365-9.081 15.604-13.682z" fill="#F5F9FA"/>
        <path d="M612.464 744.384c2.714-6.708 5.189-13.137 7.597-19.395 1.35 14.355 6.624 26.465 23.278 28.051-5.669 3.368-12.72 5.674-16.784 10.497-4.099 4.864-5.234 12.226-7.626 18.384-1.47-14.188-6.863-25.964-24.437-27.236 6.37-3.6 12.05-6.81 17.972-10.301z" fill="#F2F7F9"/>
        <path d="M356.62 349.238c-4.578-1.893-8.839-3.59-12.654-5.11 5.171-2.672 12.26-4.503 16.459-9.02 4.184-4.502 5.468-11.698 7.502-16.483 1.788 4.36 2.977 11.536 7.081 16.076 4.212 4.66 11.275 6.741 17.068 9.94-15.503 1.455-22.904 11.567-24.112 27.392-2.805-8.314-3.03-17.341-11.343-22.795z" fill="#F2F7F9"/>
        <path d="M356.591 763.252a870.614 870.614 0 0 0-12.272-5.006c4.794-2.928 11.632-5.287 15.605-10.041 3.965-4.744 5.061-11.887 6.885-16.606 1.75 4.613 2.835 11.911 6.85 16.801 3.962 4.824 10.89 7.21 16.135 10.432-16.018.884-21.06 12.974-22.933 27.799-1.815-8.807-2.532-17.38-10.27-23.379z" fill="#F2F7F9"/>
        <path d="M222.357 423.94c1.098-1.55 2.68-2.881 4.097-4.369 16.701-17.527 33.29-35.188 45.3-56.426 2.632-4.655 3.553-10.273 5.296-15.436.297-.882.76-1.71 1.515-2.634 3.438 10.846.815 20.93-4.882 30.183-9.902 16.084-22.66 29.885-36.022 43.112-4.025 3.985-9.16 5.819-15.304 5.57z" fill="#CBD7E0"/>
        <path d="M584.952 291.774c-9.634-2.478-14.087-9.388-10.886-18.478 3.497-9.927 7.917-19.529 12.374-30.337 3.16 7.835 5.867 14.545 8.329 21.896-.165 2.715-.337 4.837.037 6.858 1.856 10.031-.093 14.206-8.798 18.533-.486.241-.71 1.007-1.056 1.528z" fill="#F9FCFC"/>
        <path d="M738.268 261.792c-10.774-11.407-6.734-27.118 7.657-31.108 8.484-2.352 18.075 2.812 21.065 11.343 2.914 8.312-1.112 18.314-8.9 21.913-6.86 3.171-13.427 2.826-19.822-2.148m9.787-23.787c-1.05.468-2.156.845-3.143 1.422-5.478 3.2-7.072 9.183-3.894 14.432 2.954 4.878 9.892 6.46 14.781 3.37 4.056-2.563 5.811-6.982 4.584-11.54-1.499-5.57-4.703-7.733-12.328-7.684z" fill="#F0F6F8"/>
        <path d="M320.733 841.045c-4.697-3.058-9.444-5.792-13.4-9.396-14.147-12.892-26.427-27.446-37.104-43.338-.498-.742-.656-1.712-.874-2.31 19.361 15.236 38.754 30.496 58.457 45.917-2.048 3.125-4.407 6.09-7.079 9.127z" fill="#CDD9E1"/>
        <path d="m266.061 748.025 5.358-4.718 6.43 7.024-46.994 44.237 1.134 1.49c-1.605-1.805-3.36-3.506-4.722-5.479-.401-.58.31-1.93.946-3.35a42237.586 42237.586 0 0 0 34.85-36.188s-.06-.039.258-.107c1.126-1.015 1.933-1.962 2.74-2.909z" fill="#F2F8FA"/>
        <path d="M678.855 409.72c-.16.948-.308 1.492-.454 2.036-2.775-10.95-5.335-21.694-18.329-27.084 11.583-5.15 16.288-13.743 17.647-25.033 2.499 11.083 6.704 20.806 19.6 25.209-12.436 4.543-16.368 13.866-18.464 24.872z" fill="#F2F7F9"/>
        <path d="M391.995 178.764c2.832 7.747 8.9 11.188 17.05 13.803-12.637 2.902-17.664 11.233-19.97 22.414-2.216-11.117-7.247-19.574-19.445-22.7 12.66-3.019 17.417-12.143 19.763-23.414.835 3.174 1.67 6.348 2.602 9.897z" fill="#F2F8FA"/>
        <path d="M262.716 751.024c-11.125 11.94-22.597 23.861-34.382 35.905-.596-2.374-.877-4.871-1.168-7.448-2.808-1.151-1.116 7.708-6.045 2.61 10.064-10.948 20.408-21.715 30.725-32.506 3.558-3.72 7.05-7.503 10.848-11.443-.54 1.678-1.056 3.764-2.238 5.357-2.063 2.779-1.364 6.165 2.26 7.525z" fill="#0D2E43"/>
        <path d="M308.616 383.34c-2.836-1.69-5.405-3.128-8.803-5.033 10.707-2.68 14.082-11.039 16.48-20.292 2.409 9.179 5.393 17.508 16.046 20.865-10.267 2.361-13.203 10.847-15.946 18.448-2.579-4.72-5.044-9.23-7.777-13.989z" fill="#F0F6F8"/>
        <path d="M512.176 779.65c-.503-3.376-1.332-7.139-.993-10.794 1.798-19.38.742-38.654-1.275-57.944-.344-3.284.687-6.712 1.084-10.475 6.26 4.563 6.385 11.957 7.05 18.826 1.706 17.639-1.881 34.9-4.56 52.206-.404 2.609-.73 5.23-1.306 8.182z" fill="#CBD7E0"/>
        <path d="M744.176 784.864a9284.844 9284.844 0 0 1-16.065-15.4c-2.546-2.448-2.913-4.94-.523-7.84 1.79-2.174 3.587-2.344 5.461-.505a1896.87 1896.87 0 0 1 21.846 21.753c1.49 1.512 3.001 3.39.539 5.445-2.194 1.83-4.438 3.027-6.983.511-1.296-1.282-2.67-2.486-4.275-3.964z" fill="#F0F6F8"/>
        <path d="M944.992 572.028c-18.626-.14-37.252-.355-55.878-.402-30.282-.078-60.565-.049-90.848-.047-1.45 0-2.902.17-5.346.323.798 4.672 1.531 8.963 2.756 13.649.76.764 1.028 1.132 1.295 1.5-.748.2-1.817.82-2.194.534-3.38-2.577-4.697-12.743-1.921-15.986.918-1.072 2.785-1.886 4.217-1.885 49.607.025 99.214.163 149.334.6-.13.783-.772 1.248-1.415 1.714z" fill="#172F3E"/>
        <path d="M539.933 237.032c.357-1.438.653-2.494 1.044-3.89 2.112 5.437 3.749 10.541 6.106 15.287.961 1.934 3.308 3.433 5.353 4.5 1.909.997 5.399.494 4.51 3.826-.747 2.796-2.325 5.99-4.555 7.547-1.438 1.004-4.723-.612-7.167-1.113-.232-.047-.456-.497-.548-.802-1.856-6.138-5.425-8.073-11.288-4.733-.2.114-.973-.78-.531-.41 2.456-6.941 4.736-13.385 7.076-20.212z" fill="#F0F6F8"/>
        <path d="M422.04 811.302c2.266-.121 4.57.22 6.875.22 47.407.03 94.814.023 142.22.002 1.656 0 3.311-.232 5.44-.37-.874.6-2.22 1.747-3.568 1.75-48.476.091-96.951.091-145.427.018-1.834-.002-3.666-.858-5.54-1.62z" fill="#172F3E"/>
        <path d="M797.443 587.035c-.74-.352-1.007-.72-1.33-1.325 49.272-.263 98.6-.29 148.38-.201.45.116.326.342.315.47-1.912.426-3.813.977-5.714.98-47.06.054-94.12.051-141.651.076z" fill="#02121F"/>
        <path d="M377.371 244.33c-2.329 4.028-4.465 7.736-6.833 11.846l-12.5-7.626 8.819-15.775c4.014 2.433 7.9 4.79 12.255 7.428a126.546 126.546 0 0 1-1.74 4.127z" fill="#F0F6F8"/>
        <path d="M477.417 910.73c.757-15.57 1.76-31.372 2.763-47.173l2.093.032 2.507 48.312h11.195c0-5.11 0-10.04.095-15.42.35 4.279.74 9.007.744 13.736 0 .902-1.348 2.223-2.365 2.637-6.018 2.45-10.561.502-13.981-6.403-1.098 1.585-1.951 2.818-3.05 4.28z" fill="#0E2234"/>
        <path d="M783.168 779.773c-9.84-9.204-19.449-18.723-29.146-28.15-5.209-5.064-10.57-9.97-15.981-15.264.452-1.062 1.023-1.81 1.725-2.817 10.187 9.25 20.255 18.745 30.292 28.274 3.11 2.953 6.133 5.998 9.505 9.123 1.81 1.62 3.312 3.12 5.17 4.512-.218 1.277-.794 2.66-1.565 4.322z" fill="#0E283C"/>
        <path d="M308.058 798.93c10.78 5.59 21.559 11.18 32.647 16.923-1.681 2.703-3.67 5.253-5.88 8.019-4.672-3.05-9.469-5.943-13.486-9.675-4.784-4.444-8.9-9.609-13.322-14.832-.016-.372.04-.435.04-.435z" fill="#CDD9E1"/>
        <path d="M550.08 912.065c-.147-16.405-.147-32.57-.147-48.736l1.46-.127c2.087 16.064 4.173 32.129 6.404 48.588-1.24-1.147-2.625-2.687-5.008-5.338-.557 2.148-1.008 3.893-1.467 5.635-.037.14-.141.38-.204.376-.299-.016-.595-.099-1.038-.398z" fill="#172F3E"/>
        <path d="M243.083 695.444c18.908-.355 37.863-.466 56.818-.484 58.048-.055 116.096-.074 174.6-.013-1.612.412-3.68 1.006-5.748 1.007-71.529.056-143.058.06-214.587.05-3.679 0-7.358-.179-11.083-.56z" fill="#02121F"/>
        <path d="M524.347 695.37c32.116-.332 64.54-.427 96.964-.44 45.237-.02 90.473.022 136.167.111-1.122.371-2.702.929-4.282.93-74.867.044-149.734.042-224.6.026-1.314 0-2.628-.231-4.25-.627z" fill="#02121F"/>
        <path d="M729.312 225.976c8.182-6.253 16.762-12.509 25.373-18.72 2.553-1.841 5.228-2.244 7.668.167 8.283 8.181 16.573 16.358 24.702 24.69.99 1.015 1.024 2.965 1.239 4.69-6.834-6.467-13.408-13.14-19.977-19.817-1.86-1.892-3.794-3.721-5.539-5.716-2.827-3.232-5.74-2.876-8.605-.27-2.178 1.982-3.45 5.198-7.264 4.745-.485-.058-1.314.59-1.569 1.113-2.414 4.965-8.745 4.397-11.879 8.442-.579.747-2.46.486-4.15.676z" fill="#0E283C"/>
        <path d="M309.445 855.072c-6.514-6.917-12.817-13.911-18.883-21.105-1.934-2.293-3.24-5.117-5.486-8.758 10.856 7.788 20.544 14.738 30.58 21.74-1.737 2.692-3.823 5.33-6.211 8.123z" fill="#CDD9E1"/>
        <path d="m735.07 333 1.751 1.428c-2.46 2.991-.572 8.316-5.98 10.04-1.812.577-2.7 4.058-4.41 6.871-3.64-1.01-6.833.214-7.764 6.016-.234 1.451-3.358 3.182-5.287 3.363-1.344.127-2.919-2.17-4.385-3.39-1.015-.845-2.02-1.702-3.337-2.813.278-.791.805-2.292 1.337-4.154.005-.362.005-.361.384-.367 2.758-.7 5.136-1.395 7.515-2.089 0 0 .15.145.097.548-.926 2.718-6.383 4.71-1.263 7.313 5.88-5.597 11.59-10.835 17.038-16.332 1.784-1.799 2.89-4.27 4.305-6.434z" fill="#0A2940"/>
        <path d="M793.268 555.661c2.405-.249 4.88-.003 7.356-.006 47.016-.06 94.031-.153 141.047-.215 1.466-.002 2.933.257 4.843.826.389.86.334 1.288-.018 1.712-.694-.003-1.09-.003-1.487-.002-1.734-.324-3.467-.928-5.2-.93-45.893-.05-91.785-.02-137.677-.079-2.932-.003-5.862-.604-8.864-1.306z" fill="#0B1C2B"/>
        <path d="M704.885 242.966c-2.855-2.304-5.514-5.246-8.545-7.732-1.491-1.223-3.674-1.604-5.938-2.299.05-.547.75-1.754.9-1.689 4.175 1.81 7.332-1.118 11.235-2.23 2.92 2.968 5.468 5.94 8.416 9.379 5.38-3.781 10.828-7.61 16.613-11.526 1.73 2.147 1.38 3.536-1.09 5.04-2.917 1.777-5.485 4.205-7.962 6.6-2.306 2.23-8.656 2.3-13.216-.652-.673-1.759-1.006-3.052-1.435-4.716-2.398 3.685-2.398 3.685 1.135 4.86-.024 1.505-.047 3.01-.113 4.965z" fill="#0E283C"/>
        <path d="M658.434 263.317c1.203-1.354 2.386-2.705 3.927-4.464l3.242 4.318-23.097 22.549c-.718-.877-1.605-1.962-2.534-3.382.229-.56.498-.782 1.213-1.326 2.674-2.845 4.903-5.368 7.132-7.89.314.002.55-.132 1.058-.762 2.164-2.338 3.979-4.315 5.794-6.293a45.198 45.198 0 0 0 2.113-1.56c.615-.623.853-.904 1.09-1.185 0 0 .041-.001.062-.005z" fill="#E6F3F7"/>
        <path d="M144.19 485.166c4.041-1.937 8.683-2.994 12.516-5.36 10.097-6.234 14.432-18.372 11.397-30.382 1.513 1.726 3.001 3.87 4.672 6.239-.278 1.043-1.22 1.921-1.125 2.668 1.127 8.86-3.82 15.282-8.49 22.16-3.377 1.745-7.09 2.698-10.144 4.67-3.087 1.994-5.669 1.964-8.826.005z" fill="#172F3E"/>
        <path d="M464.86 866.994c.447 13.548.868 27.096 1.373 40.642.056 1.49.59 2.961 1.306 4.607-4.13 1.164-2.756-2.226-2.632-4.23.3-4.868.055-9.45-4.411-12.937.584-9.453 1.505-18.836 2.754-28.534.755-.06 1.183.196 1.61.452z" fill="#0E2234"/>
        <path d="m497.45 876.986.848-13.964 1.883.046 2.877 49.046c2.433 0 4.719 0 7.458.093-2.595.398-5.643.702-8.905 1.028-.913-7.941-1.705-15.251-2.65-22.542-.12-.926-1.031-1.749-1.93-2.648-.261-2.111-.168-4.193.352-6.728.308-1.746.187-3.038.067-4.33z" fill="#0E2234"/>
        <path d="M734.94 332.84c-1.285 2.324-2.39 4.795-4.174 6.594-5.449 5.497-11.159 10.735-17.038 16.332-5.12-2.603.337-4.595 1.337-7.24 5.239-5.413 10.292-10.557 15.519-15.518.845-.802 2.46-.793 4-.947.282.212.227.62.357.78z" fill="#E6F3F7"/>
        <path d="M422.325 845.366c41.39-.33 83.095-.392 124.799-.441 7.976-.01 15.952.035 24.39.128-.956.364-2.374.907-3.793.908-47.546.041-95.093.033-142.64.014-.813 0-1.628-.221-2.756-.61z" fill="#02121F"/>
        <path d="M442.028 897.961c1.127-11.6 2.61-23.215 4.093-34.829l1.866.126c0 11.606 0 23.211-.078 35.28-1.893.111-3.71-.24-5.881-.577z" fill="#0E2234"/>
        <path d="M760.277 689.69c-.384-14.655-.549-29.6-.543-44.547.013-32.73.112-65.462.271-98.65.393.955.947 2.368.948 3.78.048 45.235.046 90.468.028 135.702 0 1.141-.265 2.282-.704 3.715z" fill="#02121F"/>
        <path d="M460.097 476.014c11.36-.176 22.482-.176 34.465-.176 0-10.978 0-21.523.158-32.453.859.5 2.18 1.4 2.164 2.273-.175 9.425-.397 18.858-1.061 28.257-.101 1.433-2.477 3.83-3.856 3.87-10.285.298-20.585.133-30.88.01-.415-.005-.819-1.046-.99-1.78z" fill="#0B1C2B"/>
        <path d="M532.329 904.722c-.262-13.58-.262-27.437-.262-41.294l2.296-.11c1.205 10.613 2.41 21.226 3.542 32.26-1.03-1.018-1.986-2.458-3.197-4.28-.761 4.73-1.44 8.939-2.38 13.424z" fill="#172F3E"/>
        <path d="M694.693 279.867c11.662 10.953 23.115 22.235 34.697 33.788-.851.766-1.831 1.261-3.106 2.049-4.99-6.227-9.985-12.378-16.306-17.55-5.196-4.25-9.582-9.506-14.19-14.444-.787-.843-.887-2.327-1.095-3.843z" fill="#0E283C"/>
        <path d="M225.32 511.974c10.076-12.645 20.52-25.29 31.268-38.094-2.51 4.764-4.778 10.119-8.258 14.515-5.692 7.192-12.127 13.8-18.36 20.553-1.159 1.256-2.84 2.03-4.65 3.026z" fill="#0E2234"/>
        <path d="M667.81 763.748c-5.797 3.912-11.282 7.994-13.279 15.255-2.233 8.121-.637 15.251 5.462 21.624-3.68.943-5.21-.6-6.294-4.463-2.31-8.239-2.042-16.326.054-24.367.534-2.045 2.787-4.782 4.617-5.101 3.353-.586 4.867-6.258 9.44-2.948z" fill="#0D283F"/>
        <path d="M567.504 894.006c-.804-10.127-1.252-20.26-1.699-30.393l1.644-.18c1.8 10.59 3.6 21.181 5.373 32.18-1.67-.266-3.315-.94-5.318-1.607z" fill="#172F3E"/>
        <path d="M585.36 291.877c-.062-.624.162-1.39.648-1.63 8.705-4.328 10.654-8.503 8.798-18.534-.374-2.021-.202-4.143.015-6.485 1.66 3.758 3.503 7.69 4.286 11.824 1.624 8.57-4.14 14.768-13.747 14.825z" fill="#CBD7E0"/>
        <path d="M690.125 831.058c6 5.33 11.993 11.04 18.17 17.013-5.3 2.725-7.509-1.87-9.335-5.045-1.989-3.459-3.768-5.193-7.179-3.517-.593-2.883-1.127-5.477-1.656-8.45z" fill="#0D283F"/>
        <path d="M675.847 244.813c.026.553-.067.888-.273 1.125-6.539 7.538-6.545 7.541.755 14.667 1.895 1.85 3.824 3.662 5.862 5.802-1.46-.452-3.044-1.213-4.91-2.19l-.285-.22c-5.972-1.37-7.621-6.165-8.952-11.616a90.39 90.39 0 0 1 5.517-8.513c.138-.188 1.384.436 2.286.945z" fill="#0E283C"/>
        <path d="M737.05 322.221c1.829 1.245 3.644 2.873 5.56 4.592 2.315-2.125 4.612-4.233 7.141-6.577 1.34 3.11 3.196 6.821-1.643 8.666-5.018 1.914-9.268-.698-11.058-6.681z" fill="#0E283C"/>
        <path d="M459.185 448.163c.43 7.868.514 15.89.518 24.374-.56.06-1.463-.352-1.457-.747.134-7.826.374-15.65.939-23.627z" fill="#0B1C2B"/>
        <path d="M946.794 557.981c.054-.427.109-.855.11-1.603 4.2 2.388 4.366 15.024.112 17.255-.369.193-1.252-.594-1.96-1.265.579-.806 1.221-1.271 1.807-2.06-.019-3.346.018-6.371.072-10.178-.035-1.238-.088-1.693-.141-2.149z" fill="#ECF9FB"/>
        <path d="M424.263 153.745c2.48.693 4.698 1.465 7.348 2.26-4.7 1.864-9.833 3.704-14.965 5.543l-.549-.938c2.634-2.262 5.268-4.524 8.166-6.865z" fill="#E6F3F7"/>
        <path d="M757.952 311.024c2.954-3.22 6.407-5.97 2.702-11.029 1.16.354 2.907.72 3.704 1.792 1.505 2.026-1.798 10.55-4.157 11.03-.605.124-1.45-.934-2.249-1.793z" fill="#0E283C"/>
        <path d="M777.884 831.15c-4.685-4.172-9.31-8.697-14.081-13.519 6.612.92 9.861 6.798 14.479 10.839.321.28-.205 1.53-.398 2.68z" fill="#0D283F"/>
        <path d="M214.866 524.462c2.937-4.183 6.21-8.217 9.796-12.38 1.428 7.464-4.596 9.549-9.796 12.38z" fill="#0E2234"/>
        <path d="M680.127 821.167c3.004 2.445 5.967 5.26 9.06 8.391-2.055.804-4.238 1.292-6.714 1.845-.768-3.177-1.577-6.521-2.346-10.236z" fill="#0D283F"/>
        <path d="M763.734 816.974c-4.218-3.522-8.373-7.42-12.653-11.63 7.344.003 9.338 6.398 12.653 11.63z" fill="#0D283F"/>
        <path d="M542.703 520.744c-.269-10.21-.175-20.532.072-31.301.75 2.017 1.815 4.474 1.858 6.948.11 6.26-.165 12.532-.453 18.79-.084 1.83-.726 3.634-1.477 5.563z" fill="#02121F"/>
        <path d="M666.682 807.917c2.88 2.224 5.558 4.778 8.36 7.644-3.065.138-6.254-.037-8.562-.163 0-2.51 0-4.832.202-7.481z" fill="#0D283F"/>
        <path d="M772.06 839.081c1.765-2.378 3.682-4.432 5.74-6.78 3.133 2.924.368 5.055-1.562 6.95-.71.696-2.65.14-4.178-.17z" fill="#0D283F"/>
        <path d="M207.566 584.927c-.3-3.308-.026-6.76-.277-10.172-.08-1.09-1.553-2.077-2.838-3.266 1.033.07 3.799.267 3.805.528.1 4.256-.15 8.52-.69 12.91z" fill="#0E2234"/>
        <path d="M749.02 304.94c2.423 2.084 4.846 4.168 7.625 6.292-2.386-.046-5.126-.133-8.255-.226-.39-.006-.389-.005-.388-.4.34-2.151.679-3.909 1.018-5.666z" fill="#0E283C"/>
        <path d="M537.745 899.28c.862 3.907 1.432 8.098 2.073 12.799 2.419 0 4.856 0 7.733.094-1.65.349-3.83 1.07-5.804.699-1.405-.265-3.37-1.836-3.622-3.114-.655-3.313-.502-6.786-.38-10.479z" fill="#172F3E"/>
        <path d="M205.117 541.288c-1.25.4-2.51.4-4.948.4 3.08-3.77 5.497-6.726 8.197-9.856-.897 2.902-2.078 5.979-3.249 9.456z" fill="#0E2234"/>
        <path d="M509.274 476.208c10.099-.415 20.475-.513 31.308-.486-.077.482-.614 1.153-1.146 1.15-9.962-.068-19.923-.216-30.162-.664z" fill="#02121F"/>
        <path d="M543.227 473.707c-.39-9.747-.473-19.779-.418-30.261.49.927 1.152 2.307 1.143 3.682-.057 8.766-.262 17.53-.725 26.58z" fill="#02121F"/>
        <path d="M701.323 500.36c8.705-.325 17.722-.378 27.2-.344-4.557.387-9.572.829-14.595.943-4.093.094-8.194-.203-12.605-.599z" fill="#02121F"/>
        <path d="M187.754 458.664c-4.233-.537-8.698-1.342-13.454-2.394.883-.68 2.222-1.708 3.2-1.436 3.408.945 6.69 2.34 10.254 3.83z" fill="#172F3E"/>
        <path d="M708.513 848.85c1.555.978 2.927 2.256 4.408 3.837-2.142 1.535-4.393 2.767-7.108 4.252.995-3.08 1.756-5.434 2.7-8.09z" fill="#0D283F"/>
        <path d="M272.33 500.374c8.697-.43 17.705-.587 27.171-.648-.557.488-1.574 1.22-2.589 1.218-8.09-.02-16.181-.18-24.583-.57z" fill="#02121F"/>
        <path d="M728.864 782.824c-2.673-2.015-5.297-4.425-8.093-7.111 1.223-.593 2.618-.91 4.38-1.31 1.297 2.767 2.529 5.397 3.713 8.421z" fill="#0D283F"/>
        <path d="M716.536 856.885c1.637 1.03 3.095 2.402 4.697 4.032-2.244 1.4-4.633 2.541-7.033 3.688.79-2.705 1.474-5.042 2.336-7.72z" fill="#0D283F"/>
        <path d="M170.2 486.106c3.286 2.136 6.541 4.642 9.971 7.445-4.924.196-8.098-2.563-9.97-7.445z" fill="#172F3E"/>
        <path d="M647.894 273.088c-1.806 2.556-4.035 5.08-6.582 7.694.07-3.983.201-8.269 6.582-7.694z" fill="#0A2940"/>
        <path d="M568.22 912.008c-.564-4.792-.857-9.464-1.085-14.581.526.88 1.323 2.19 1.38 3.533.158 3.716.006 7.445-.295 11.048z" fill="#172F3E"/>
        <path d="M447.425 910.078c2.122 2.516 7.459 2.914 11.427.324 2.571.442 2.82 2.01.286 2.382-3.73.55-7.603.195-11.406.024-.255-.012-.434-1.717-.307-2.73z" fill="#172F3E"/>
        <path d="M579.363 808.93c1.553-3.606 1.774-7.337-.067-11.538 3.686 2.91 3.872 7.195.067 11.537z" fill="#172F3E"/>
        <path d="M748.968 802.683c-2.368-1.881-4.73-4.14-7.257-6.667 4.851-.96 6.436 2.237 7.257 6.667z" fill="#0D283F"/>
        <path d="M661.01 802.274c1.694 1.24 3.373 2.817 5.24 4.634-1.692.09-3.625.13-5.394-.39-.31-.09.076-2.543.155-4.244z" fill="#0D283F"/>
        <path d="M749.008 316.588c-2.097-1.837-4.192-4.06-6.458-6.556-.17-.274.128-.667.647-.842 1.947.487 3.376 1.15 4.804 1.811l-.002-.002c.336 1.735.673 3.47 1.01 5.59z" fill="#0E283C"/>
        <path d="M209.018 531.73c1.359-2.298 3.097-4.528 5.065-6.97 2.35 4.752-1.612 5.594-5.065 6.97z" fill="#0E2234"/>
        <path d="M741.446 795.125c-1.897-1.284-3.597-2.878-5.419-4.778 4.299-1.183 6.364.536 5.419 4.778z" fill="#0D283F"/>
        <path d="M654.74 266.048c-1.386 1.997-3.201 3.974-5.318 6.105-.86-3.832-.241-6.842 5.317-6.105z" fill="#0A2940"/>
        <path d="M130.167 483.129c3.609.382 7.319 1.074 11.431 1.845-3.839 1.944-7.737 1.313-11.43-1.845z" fill="#172F3E"/>
        <path d="M713.019 767.545c-2.23-1.743-4.47-3.848-6.835-6.26a71.323 71.323 0 0 1 6.835 6.26z" fill="#0D283F"/>
        <path d="M459.5 905.9c-.21-2.663-.052-5.433.307-8.548a44.133 44.133 0 0 1-.307 8.549z" fill="#172F3E"/>
        <path d="M729.762 314.836c2.196 1.634 4.168 3.557 6.258 5.794-.667.33-1.453.346-2.754.097a25.756 25.756 0 0 1-2.261-1.727c-.49-1.292-.979-2.583-1.243-4.164z" fill="#0E283C"/>
        <path d="M757.196 295.19c-1.963-1.243-3.673-2.822-5.508-4.714 2.325.638 6.004.049 5.508 4.714z" fill="#0E283C"/>
        <path d="M437.344 912.568c4.468-.414 1.965-4.744 3.598-7.192.623.54 1.568 2.21 1.507 2.247-2.083 1.284-.164 6.39-5.105 4.945z" fill="#0E2234"/>
        <path d="M675.1 816.218c1.647 1.075 3.261 2.537 4.99 4.308-3.043.653-4.832-.665-4.99-4.308z" fill="#0D283F"/>
        <path d="M696.928 751.84c-1.273-.715-2.524-1.802-3.917-3.163.394-.719.928-1.163 1.463-1.607.825 1.466 1.65 2.932 2.454 4.77z" fill="#0D283F"/>
        <path d="M165.61 482.884c1.567.526 2.956 1.416 4.493 2.59-1.907.307-4.534 1.432-4.493-2.59z" fill="#172F3E"/>
        <path d="M470.104 912.848c1.284-.414 2.692-.53 4.51-.528-1.189.353-2.787.59-4.51.528z" fill="#0E2234"/>
        <path d="M532.067 912.018c-.142-1.232-.139-2.249-.058-3.64 3.22 2.213 3.22 2.213.058 3.64z" fill="#172F3E"/>
        <path d="M265.77 747.888c-.516 1.084-1.323 2.03-2.43 3.076-.298-1.296-.298-2.69-.298-4.712a87.71 87.71 0 0 0 2.729 1.636z" fill="#0D2E43"/>
        <path d="M207.598 553.92c-.365-.992-.419-2.066-.385-3.536.29.887.494 2.17.385 3.535z" fill="#0E2234"/>
        <path d="M718.722 773c-1.169-.575-2.267-1.516-3.464-2.754 1.111.598 2.323 1.493 3.464 2.754z" fill="#0D283F"/>
        <path d="M760.482 299.054c-1.014-.592-1.868-1.558-2.85-2.764 3.003-1.851 2.646.698 2.85 2.764z" fill="#0E283C"/>
        <path d="M701.417 756.085c-1.214-.59-2.256-1.53-3.416-2.753a12.208 12.208 0 0 1 3.416 2.753z" fill="#0D283F"/>
        <path d="M207.653 544.9c-.45-.806-.57-1.714-.9-2.896.48-.21 1.17-.146 1.86-.083-.21.958-.419 1.917-.96 2.979z" fill="#0E2234"/>
        <path d="M721.586 861.88c.884.253 1.597.825 2.4 1.658a5.502 5.502 0 0 1-2.4-1.658z" fill="#0D283F"/>
        <path d="M182.111 495.254c1.198.113 2.457.601 3.91 1.37-1.153-.143-2.5-.569-3.91-1.37z" fill="#172F3E"/>
        <path d="M730.738 319.132c.849.355 1.43.843 2.135 1.593-.687-.359-3.276 1.627-2.135-1.593z" fill="#0A2940"/>
        <path d="M733.96 787.724c-.939-.44-1.873-1.262-2.927-2.375.896.47 1.914 1.232 2.926 2.375z" fill="#0D283F"/>
        <path d="M703.985 758.644c-.692-.224-1.392-.832-2.26-1.667.639.276 1.446.78 2.26 1.667z" fill="#0D283F"/>
        <path d="M714.01 854.382c.706.224 1.423.83 2.296 1.679-.658-.27-1.473-.784-2.297-1.679z" fill="#0D283F"/>
        <path d="m720.98 772.981 1.414-2.982.7.314c-.478.86-.956 1.721-1.764 2.634-.33.053-.35.034-.35.034z" fill="#0D283F"/>
        <path d="M163.187 481.16c.634-.04 1.29.283 2.098.841-.59-.001-1.333-.239-2.098-.84z" fill="#172F3E"/>
        <path d="M720.684 775.01c-.69-.118-1.254-.622-1.93-1.39.403-.368.92-.473 1.832-.609.395-.03.414-.011.423-.001-.06.545-.13 1.08-.325 2z" fill="#0D283F"/>
        <path d="M946.496 557.978c.35.459.404.914.367 1.704-.657-.144-1.224-.622-1.823-1.403.366-.304.762-.304 1.456-.301z" fill="#172F3E"/>
        <path d="M429.605 907.217c.243.548.28 1.287.21 2.382-.212-.492-.314-1.341-.21-2.382z" fill="#0E2234"/>
        <path d="M750.935 804.717c-.578-.152-1.194-.63-1.903-1.393.56.165 1.213.616 1.903 1.393z" fill="#0D283F"/>
        <path d="M730.91 784.746c-.604-.11-1.245-.56-2.009-1.285.576.132 1.275.538 2.01 1.285z" fill="#0D283F"/>
        <path d="M522.213 912.494c.549-.234 1.292-.27 2.392-.188-.495.207-1.346.297-2.392.188z" fill="#172F3E"/>
        <path d="M513.933 911.923a83.8 83.8 0 0 1 1.26.398c-.352-.011-.703-.022-1.182-.246-.128-.212-.01-.124-.078-.152z" fill="#0E2234"/>
        <path d="M431.229 912.582c.256-.219.677-.297 1.407-.263-.209.21-.726.307-1.407.263z" fill="#0E2234"/>
        <path d="M447.592 907.017c.28.149.335.318.304.74-.463.084-.84-.085-1.218-.254.23-.155.46-.31.914-.486z" fill="#172F3E"/>
        <path d="M420.536 810.022c-.368.176-.769.395-1.184.58-.016.008-.176-.307-.268-.472.3-.055.602-.11 1.19-.156.287.009.226.085.262.048z" fill="#172F3E"/>
        <path d="M421.878 282.431c.503-.036 1.122.221 1.758.833-.536.056-1.089-.241-1.758-.833z" fill="#CDD9E1"/>
        <path d="M529.135 912.572c.053-.195.207-.274.603-.264.242.088-.07.402-.07.402s-.434-.022-.533-.138z" fill="#172F3E"/>
        <path d="M562.13 912.566c.056-.192.212-.266.61-.252.244.086-.075.4-.075.4s-.437-.03-.536-.148z" fill="#172F3E"/>
        <path d="M707.473 359.456c.05-.028-.05.028 0 0z" fill="#0A2940"/>
        <path d="M219.251 424c.013-.194.289-.31.666-.281-.067.216-.235.288-.666.281z" fill="#CBD7E0"/>
        <path d="M428.529 912.544c-.05.028.049-.028 0 0z" fill="#0E2234"/>
        <path d="M658.072 263.356c.063.247-.175.528-.679.904-.052-.226.164-.548.679-.904z" fill="#0A2940"/>
        <path d="M459.33 443.213c.228-.04.403.381.324.595-.236-.042-.393-.298-.323-.595z" fill="#0B1C2B"/>
        <path d="M459.35 445.032c.225-.065.383.374.292.59-.344.073-.598-.069-.852-.21.11-.105.222-.21.56-.38z" fill="#0B1C2B"/>
        <path d="M192.904 459.76c-.083.185-.25.22-.658.166.031-.164.303-.24.658-.166z" fill="#172F3E"/>
        <path d="M542.572 487.37c.197-.15.464-.267.731-.384-.096.09-.192.181-.443.414-.154.142-.217 0-.288-.03z" fill="#02121F"/>
        <path d="M697.05 500.867c-.03-.217.175-.52.664-.791.13.346-.108.57-.665.79z" fill="#02121F"/>
        <path d="M565.117 912.507c.057-.202.217-.278.629-.271.252.083-.073.421-.073.421s-.454-.025-.556-.15z" fill="#172F3E"/>
        <path d="M573.298 900.581c.242.056.42.424.544 1.104-.24-.056-.423-.424-.544-1.104z" fill="#172F3E"/>
        <path d="M205.786 541.465c-.276.089-.314.073-.35.072.252-.177.541-.353.83-.53-.068.124-.136.247-.48.458z" fill="#0E2234"/>
        <path d="M794.712 541.556c.024.283-.12.37-.416.427-.127.013-.1-.402-.1-.402s.375-.177.516-.025z" fill="#EFF3F4"/>
        <path d="M667.02 256.248c.166-.08.344.073.475.259.029.041-.105.198-.322.385-.159.085-.16-.401-.153-.644z" fill="#0E283C"/>
        <path d="M206.902 555.687c-.252.209-.435.174-.84-.03-.108-.47.108-.628.635-.682.23.133.251.3.205.712z" fill="#8C9AA5"/>
        <path d="M204.163 586.903c-.16.082-.141-.398-.125-.638.169-.074.338.081.461.267.027.04-.114.19-.336.371z" fill="#0E2234"/>
        <path d="M264.455 740.53c-.03-.05.029.05 0 0z" fill="#0D2E43"/>
        <path d="M206.6 490.535c1.93-4.677 3.64-9.052 5.714-14.353l30.044-5.726-34.46 41.595c-1.662-5.673-3.44-10.275-4.19-15.04-.295-1.87 1.713-4.105 2.891-6.476z" fill="#092A41"/>
        <path d="M183.543 484.19c-2.034-4.015-2.613-8.123.686-10.82 2.541-2.079 6.383-3.806 9.52-3.616 4.34.263 7.314 3.567 7.518 8.428.196 4.672-2.04 7.953-6.185 9.785-4.65 2.056-8.338.308-11.54-3.776m11.619-6.512c-1.458-1.221-2.758-2.943-4.434-3.47-.945-.295-3.523 1.308-3.584 2.18-.134 1.9.32 4.377 1.53 5.72 2.413 2.676 5.114 1.087 6.488-4.43z" fill="#172F3E"/>
        <path d="M948.456 553.528c-.028-.05.028.05 0 0z" fill="#ECF9FB"/>
        <path d="M650.122 667.598c-.016-30.267-.016-60.07-.016-90.942 6.167 0 12.274-.31 18.315.179 1.95.158 4.08 2.107 5.53 3.76 11.752 13.378 23.363 26.88 35.011 40.349 1.077 1.245 2.111 2.526 3.813 4.566v-48.12h24.13v92.452c-6.402 0-12.708.19-18.985-.143-1.454-.078-3.06-1.734-4.178-3.026-13.062-15.092-26.044-30.252-39.692-46.145v49.251c-7.68 0-14.803.046-21.922-.075-.672-.011-1.327-1.069-2.006-2.106z" fill="#042642"/>
        <path d="M544.396 634.258c-.198-2.152-.396-4.304-.7-7.226a45.141 45.141 0 0 1-.161-3.055c.109-.432.218-.864.357-2.048.402-3.81.773-6.867 1.144-9.926 0 0 .242-.158.462-.484a5.383 5.383 0 0 0 .33-1.514c6.347-16.258 16.975-28.197 34.407-32.492 24.746-6.099 47.492 5.524 57.152 29.68 8.959 22.402-1.21 49.098-23.46 59.63-25.53 12.085-56.198 3.012-67.879-27.3-.358-.929-.647-1.885-1.054-3.491-.257-1.033-.427-1.404-.598-1.774m39.232-32.348c-2.37 1.488-5.043 2.651-7.059 4.522-7.332 6.808-9.8 15.205-6.831 24.838 3.049 9.894 10.224 15.444 20.227 16.524 9.881 1.066 17.813-3.019 22.929-11.753 4.899-8.363 4.182-18.52-1.622-26.142-6.567-8.623-15.79-11.5-27.644-7.989z" fill="#052541"/>
        <path d="m537.987 618.994-12.354 14.988 25.115 35.627c-9.021 0-17.222.155-25.405-.152-1.376-.052-3.001-1.88-3.96-3.268-6.331-9.171-12.513-18.447-19.286-28.494v31.734h-22.714v-91.442c12.335 0 24.536-1.03 36.475.295 11.479 1.276 19.364 8.768 23.163 20.677.329 1.18.617 1.697.906 2.213 0 0-.06.438-.025 1.07.117 2.678.2 4.725.284 6.772-.061.44-.122.882-.268 1.994-.365 2.11-.645 3.549-.924 4.988 0 0-.232.26-.474.63-.339 1.038-.436 1.703-.533 2.368m-33.593-20.016c-.811.524-2.31 1.027-2.328 1.577-.174 5.577-.106 11.161-.106 16.664 1.463 0 2.295.035 3.124-.006 6.883-.338 10.69-3.634 10.661-9.213-.026-5.016-4.146-8.576-11.35-9.022z" fill="#072843"/>
        <path d="M264.99 577.39h55.74v22.557h-32.81V612.9h28.818v20.888h-28.61v14.095h33.598v21.582h-57.82c-.184-1.174-.383-2.445-.122-4.274.716-1.977 1.194-3.396 1.196-4.815.036-27.662.016-55.325.008-82.987z" fill="#062743"/>
        <path d="M376.373 577.388c6.5 1.972 12.117 4.59 16.223 9.941l-8.486 16.27c-3.945-1.697-7.66-3.43-11.48-4.878-1.835-.695-3.868-1.153-5.82-1.186-3.708-.062-7.05 1.008-8.21 5.077-1.146 4.026 1.875 5.755 4.675 7.178 6.214 3.16 12.735 5.748 18.812 9.14 11.921 6.657 17.425 18.335 14.633 29.98-2.938 12.257-13.386 21.015-26.392 22.121-17.547 1.494-30.31-2.99-41.22-14.67l11.417-17.308c3.116 2.065 5.898 4.08 8.842 5.821 5.153 3.048 10.48 6.42 16.725 4.222 2.418-.851 5.36-3.305 5.862-5.525.4-1.77-2.063-5.1-4.103-6.318-4.39-2.622-9.397-4.185-14.025-6.44-8.841-4.309-16.811-9.394-19.301-20.035-2.532-10.822 3.656-24.962 13.458-30.272 8.948-4.846 18.284-5.513 28.39-3.118z" fill="#062742"/>
        <path d="M453.92 580.928c17.637 8.94 22.107 30.65 14.01 45.58-5.614 10.354-15.041 14.494-26.213 15.526-3.11.288-6.246.305-9.742.464v26.998h-22.8v-93.05c12.987.68 25.699 1.257 38.392 2.102 2.04.136 4 1.473 6.354 2.38m-8.155 36.236c3.063-3.867 2.865-7.893.565-12.006-3.16-5.648-8.537-5.787-14.12-5.99v21.785c4.788-.054 9.5.914 13.555-3.79z" fill="#042641"/>
        <path d="M264.65 577.33c.347 27.721.367 55.384.33 83.046-.001 1.42-.48 2.838-1.069 4.425-.399-19.253-.462-38.675-.53-58.096-.028-8.305-.116-16.61-.05-24.914.012-1.51.636-3.014 1.318-4.461z" fill="#02121F"/>
        <path d="M539.31 616.042c-.037-1.485.243-2.924.668-4.704 1.54-.008 2.936.323 4.694.66-.007 3.064-.378 6.122-.842 9.599-1.464-1.557-2.835-3.533-4.52-5.555z" fill="#E6F3F7"/>
        <path d="M540.538 609c-.436-2.033-.519-4.08-.536-6.561.861 1.06 1.889 2.49 2.336 4.084.178.636-.927 1.631-1.8 2.477z" fill="#E6F3F7"/>
        <path d="M543.251 624.043c.301.696.32 1.458.298 2.601-.22-.59-.4-1.563-.298-2.6z" fill="#E6F3F7"/>
        <path d="M539.955 600.87c-.317-.214-.605-.731-.837-1.554.326.213.596.732.837 1.553z" fill="#E6F3F7"/>
        <path d="M538.248 618.776c-.164-.447-.067-1.112.306-1.978.169.453.062 1.107-.306 1.978z" fill="#E6F3F7"/>
        <path d="M545.62 610.214c.171.187.134.583-.15 1.163-.184-.195-.121-.575.15-1.163z" fill="#E6F3F7"/>
        <path d="M544.325 634.57c.242.058.412.429.537 1.112-.233-.059-.42-.429-.537-1.112z" fill="#E6F3F7"/>
        <path d="M497.322 877.373c.248.906.369 2.198.173 3.564-.31-1.01-.306-2.094-.173-3.564z" fill="#022340"/>
        <path d="M464.935 866.636c-.502.102-.93-.153-1.585-.511-.161-.97-.095-1.838-.029-2.705l.972-.155c.239 1.004.477 2.008.642 3.37z" fill="#172F3E"/>
        <path d="M497.213 713.792c-3.226-2.677-3.183-5.816-.613-7.85 1.592-1.26 5.088-1.6 6.852-.676 1.338.7 2.222 4.33 1.665 6.154-1.095 3.59-4.134 4.38-7.904 2.372z" fill="#172F3E"/>
        <path d="M138.759 661.194c-2.165-6.31-.75-10.19 4.15-12.223 4.824-2.003 9.202-.503 11.92 4.084 2.363 3.985 1.21 8.335-2.954 11.15-4.654 3.147-8.601 2.323-13.116-3.011z" fill="#0D283F"/>
        <path d="M857.56 640.332c6.01 2.23 8.575 6.391 7.088 11.005-1.678 5.206-7.754 8.709-12.541 7.139-3.8-1.246-6.286-3.605-6.246-7.937.041-4.401 1.897-7.72 6.01-9.392 1.627-.662 3.535-.635 5.688-.815z" fill="#0A2940"/>
        <path d="M760.028 840.973c2.881 3.853 3.056 7.832-.04 11.34-3.806 4.314-7.422 9.169-12.147 12.18-3.703 2.36-8.967 2.272-13.86 3.013 2.069-4.541 4.409-8.854 6.865-13.1 4.222-7.296 10.908-11.192 19.182-13.433z" fill="#CBD7E0"/>
        <path d="M307.97 799.022c-.142-.147-.252-.323-.362-.499.104.042.207.083.38.266.07.141.013.204-.018.233z" fill="#CDD9E1"/>
        <path d="M154.59 453.665c.67 9.842-5.59 16.79-14.463 16.593-8.347-.186-13.984-6.981-13.168-15.874.525-5.72 5.497-10.728 11.326-11.405 8.504-.988 13.617 2.276 16.306 10.686z" fill="#052541"/>
        <path d="M684.1 269.04c3.359 2.928 6.684 6.257 10.18 9.84-3.718.443-9.49-4.947-10.18-9.84z" fill="#0E283C"/>
        <path d="M714.83 347.53c-2.315 1.07-4.693 1.764-7.451 2.465.234-4.544 2.087-5.222 7.451-2.464z" fill="#022340"/>
        <path d="M677.001 264.002c-.087.036-.176.07-.135.05.13-.055.134-.052.135-.05z" fill="#0E283C"/>
        <path d="M682.313 266.95c.237-.07.54.153.942.648-.225.063-.55-.147-.942-.649z" fill="#0E283C"/>
        <path d="M748.002 310.606c-1.43-.267-2.858-.93-4.642-1.602-.766-3.248.745-4.834 4.308-5.004.746.005 1.03.16 1.295.697-.282 2-.621 3.758-.961 5.91z" fill="#022340"/>
        <path d="M748.463 237.96c7.217-.004 10.421 2.16 11.92 7.728 1.227 4.56-.528 8.978-4.584 11.541-4.889 3.09-11.827 1.508-14.781-3.37-3.178-5.249-1.584-11.231 3.894-14.432.987-.577 2.092-.954 3.551-1.467z" fill="#0A2940"/>
        <path d="M704.999 238c-3.534-1.174-3.534-1.174-1.136-4.859.429 1.664.762 2.957 1.118 4.554.021.303.019.305.018.306z" fill="#022340"/>
        <path d="M195.21 478.094c-1.423 5.102-4.124 6.691-6.536 4.015-1.21-1.343-1.665-3.82-1.531-5.72.061-.872 2.639-2.475 3.584-2.18 1.676.527 2.976 2.249 4.484 3.885z" fill="#ECF9FB"/>
        <path d="M583.962 601.697c11.52-3.298 20.743-.421 27.31 8.202 5.804 7.621 6.521 17.78 1.622 26.142-5.116 8.734-13.048 12.82-22.93 11.753-10.002-1.08-17.177-6.63-20.226-16.524-2.97-9.633-.5-18.03 6.831-24.838 2.016-1.871 4.688-3.034 7.393-4.735z" fill="#FAFCFC"/>
        <path d="M504.843 598.973c6.756.451 10.876 4.01 10.902 9.027.03 5.579-3.778 8.875-10.661 9.213-.829.04-1.66.006-3.124.006 0-5.503-.068-11.087.106-16.664.017-.55 1.517-1.053 2.777-1.582z" fill="#F2F8FA"/>
        <path d="M445.52 617.464c-3.81 4.403-8.52 3.435-13.31 3.489v-21.785c5.584.203 10.961.342 14.12 5.99 2.301 4.113 2.5 8.14-.81 12.306z" fill="#F6FAFA"/>
    </g>
</svg>